<?xml version="1.0" encoding="UTF-8"?>
<svg id="_Шар_1" data-name="Шар 1" xmlns="http://www.w3.org/2000/svg" version="1.1" viewBox="0 0 1061.5 1061.5">
  <defs>
    <style>
      .cls-1 {
        fill: #97242A;
        fill-rule: evenodd;
        stroke-width: 0px;
      }
    </style>
  </defs>
  <path class="cls-1" d="M530.8,0h0C237.6,0,0,237.6,0,530.8s237.6,530.8,530.8,530.8v-25c-101.1,0-195.3-29.7-274.3-80.8,3.5-1.9,7.2-4,10.8-6.4,7.9-5.1,20.1-13.5,23.5-18.8,4.4-5.2,8.6-10.6,12.7-16,4-5.3,7.8-10.7,11.6-16.1,14.8-21.2,29.3-42.6,43.9-64l1-1.5,1.1-1.6c4-5.8,7.9-11.7,11.9-17.5h0s0-.1,0-.1h0c11.6-17.1,23.2-34.1,34.3-51.6,10.2-15.7,20-31.8,29.7-47.9h0s0,0,0,0h0c5.3-8.7,10.6-17.5,16-26.2,8-12.8,16-25.4,25.4-39.8-1.1.4-2,.7-2.8,1-1.9.6-3.1,1-3.9,1.9-7.6,9.4-15.3,18.9-22.9,28.3-7.6,9.4-15.1,18.9-22.6,28.3-15,19.3-29.9,38.5-44.4,58-19.8,27-39,54.3-58.3,81.6l-3.2,4.5-.2.3h0c-10.4,14.5-20.8,29-29.7,44.5-1.8,3.2-4.2,5.2-6.7,7.1l-1.4,1.1c-1.5,1.2-2.8,2.5-3.9,4.1-1.7,2.6-3.4,5.2-5.1,7.9l-.2.3-.3.4-.2.4h0l-.6.9-.5.7-.3.5-.2.4-.4.6c-3.1,5.1-10,17.5-14.1,24.9-1.4,2.6-2.8,5.1-3.9,7.4-17.6-11.6-34.5-24.3-50.4-38,34.4,5.8,78.4-18.2,88.4-39.2-5.9,2.5-11.5,5.5-17.1,8.5-10,5.4-19.9,10.7-31,12.6-.1-.3-.3-.7-.5-1v-.2c0,0-.3-.4-.3-.4l-.3-.6,15.5-9.5,12-7.3c11.6-7.5,16.6-11.5,29.4-28.3,10.7-13.9,18.2-29.1,23.5-45.2,2.9-9.2,4.3-18.9,5.7-28.5h0c.5-3.5,1-7,1.6-10.5.2-1.6.6-3.2.9-4.9h0c.8-3.8,1.6-7.7,1.2-11.4-.5-5.6-2.1-11.8-5.1-16.6-2.4-3.7-7.2-3.7-10.7.3-3.8,4.5-5.6,9.4-3.8,15.5,4.5,15,5.9,30.5,3.8,46-2.1,14.4-9.1,27.5-16.6,40.1-13.4,21.6-20.5,27.7-39.2,36.9-3.3,1.4-6.1,2.2-9.1,3.1-1.3.4-2.7.8-4.2,1.3h0s-1.2.4-1.2.4l-.7.2-.9.3-.7.2-.5.2-.6.2c-3.5,1.1-6.9,2.3-10.2,3.7-5.8,2.4-11.3,5.4-16.5,8.8-7.5,5.1-14.5,11.2-21.1,18.1-42.9-38.3-79.2-83.8-107-134.6,6.2-1.3,16.6-1.3,24.9,5.2,12.3,9.8,35.3,25.5,70.1,0,27.8-20.4,24.3-44.1,19.1-53.4-15.5,7.3-50.5,18.4-57.9,18l-.7-1.7h.1c0,0,0-.2,0-.2l4-2,3.2-1.7,22.6-11.7h0s0,0,0,0c-3.1-1.7-6.4-2.3-9.6-2.4-2.3,0-4.7.1-7,.3h0c-4.1.3-8.2.7-12.1-.4,10.4-5.1,21.1-7.5,32.9-5.3,13.9,2.4,27.8,1.6,42-1.1,6.5-1.2,12.6-2.8,18.2-5.4,4.5-2,8.6-4.6,12.5-8,7.8-6.7,13.1-14.7,16.6-24.1,4.5-13.1,4.8-27,4.3-40.9,0-1.3-1.1-2.6-2.3-3.9-.5-.6-1-1.2-1.4-1.7h0c-.3.5-.7,1.1-1.1,1.7-.9,1.3-1.8,2.6-1.8,3.9.5,14.4-.8,28.4-6.7,41.7-6.4,14.4-16.6,23.8-31.6,29.4-10.7,4-19.2,1.9-28.1-3.5-.8-.4-1.5-.8-2.3-1.2h0c-2.1-1.4-4.4-3-6.9-4.9-13.7-10-36.3-21.2-66-8.7-20.7,8.7-31.4,26.5-31.4,54.6-.3,9.1-.6,17.5-5,24.1-19.8-36.6-35.1-76-45.4-117.4.6.7,1.2,1.4,1.7,2,17,18,43.4,27.9,69.1,25.6,12.5-1.1,24-6.1,34.5-13,4.6,2.2,9.6,3.7,14.6,4.5,10.6,1.7,21.1-1.2,30.9-5.9v-.4c0,0,0,0,0,0l-.2-2c-4,.4-10.3-.9-17.8-4.1-7.5-3.1-16.1-8.1-24.9-14.9-12.8-9.9-22.9-13-31.4-13.4.3,3.1,1.2,6.3,2.4,9.2.7,1.8,1.5,3.5,2.3,5,2.5,4.4,5.6,8.4,9.4,11.9-1.6-.2-3.2-.4-4.8-.6-12.6-1.9-27.6-6.2-43.5-13.2h-.1c2.4-3.5,4.7-7.5,6.4-12,6.2-16.3,5.4-38.3-14.7-63-26.8-32.8-31.4-58.5-27.5-76.5,3.2-14.8,12.4-24.9,20.6-29.8,3.1-1.5,6.1-2.6,8.5-3.3.3,0,.6-.2.8-.3h.3c0,0,.5-.3.5-.3l.8-.3h0c15.2-5.2,36.1-16.6,42.6-46.5,4.5-20.8-3.5-38.8-25.3-54-8.2-6.2-15.8-11.8-17.2-21.4h0c-2.4,3.4-10,11.8-21.5,18.7,34.5-93.1,95.6-173.4,174.1-231.4-.5,5.5-2,14.5-4.9,23.1-7.9,13.2-18,45.2.5,74.7,19,30.2,48.9,36.8,61.4,36.4h0c0,0,0-.2,0-.2h-.2c2.3-15.7-2.1-34.9-8.2-52.1,9.1,15,19.3,33.6,21.8,50.1,4.2,28.2-1,43.1-2.5,47.2h0v.2c0,0-.1.2-.1.2l7.7,10.7c5.2-13.4,10.6-56.5-9.6-93-1.2-2.2-2.4-4.2-3.6-6.1-4.4-7.1-9.2-13.9-14-20.8-5.9-8.5-11.8-16.9-17-25.8,21.5,17.7,37.2,45.1,46.1,65.1,2.6,4.5,4.9,8.9,7,12.8,2-24.7-5.4-43.4-9.7-50.1l1.9-1.9c14.1,23.3,16.1,54.6,15.3,68.2.1.3.2.5.2.7,1.2-2.4,2.8-5.5,4.4-9.2h0s0,0,0,0h0s0,0,0,0c0-.1,0-.2,0-.3v-.3c0,0,.1-.1.1-.1,0-.2.1-.3.2-.5,1.5-3.1,2.8-6.7,4.1-10.6,2.9-8.7,5.1-18.5,4.5-27.6h0c.3-26.9-11.9-57.4-55.5-74.1-4.1-1.3-8-2.5-11.7-3.6-4.2-1.3-8.2-2.2-11.9-3-9.4-2.1-17.5-4-25.6-10.8,83.8-61.5,187.2-97.9,299.1-97.9h0c111.9,0,215.4,36.4,299.1,97.9-8.1,6.8-16.2,8.6-25.6,10.8-3.8.9-7.7,1.8-11.9,3-3.7,1.1-7.6,2.3-11.7,3.6-43.7,16.7-55.8,47.2-55.5,74.1h0c-.6,9.2,1.6,19,4.5,27.7,1.2,3.9,2.6,7.4,4.1,10.6,0,.2.1.3.2.5h0c0,.1,0,.5,0,.5v.2s0,.1,0,.1h0c0,.1,0,0,0,0h0s0,0,0,0c1.6,3.7,3.2,6.8,4.4,9.2,0-.2.1-.4.2-.7-.8-13.6,1.2-44.9,15.3-68.2l1.9,1.9c-4.3,6.7-11.7,25.4-9.7,50.1,2-3.9,4.4-8.3,7-12.8,8.9-19.9,24.6-47.4,46.1-65.1-5.2,8.9-11.1,17.3-17,25.8-4.8,6.9-9.6,13.8-14,20.8-1.2,1.9-2.4,3.9-3.6,6.1-20.2,36.4-14.8,79.5-9.6,93l7.7-10.7v-.2c0,0-.1-.2-.1-.2-1.4-4.1-6.7-19-2.4-47.2,2.5-16.5,12.7-35,21.8-50.1-6.1,17.2-10.5,36.5-8.2,52.2h-.1s0,0,0,0h0c12.6.6,42.5-6.1,61.4-36.3,18.6-29.5,8.4-61.5.5-74.7-2.9-8.6-4.3-17.6-4.9-23.1,78.5,58,139.7,138.2,174.1,231.4-11.6-6.9-19.2-15.3-21.5-18.7h0c-1.4,9.6-8.9,15.2-17.2,21.4-21.8,15.2-29.8,33.2-25.3,54,6.5,29.8,27.4,41.3,42.6,46.5h0l1,.3.6.2c.3,0,.5.2.8.3,2.5.7,5.4,1.8,8.5,3.3,8.3,4.9,17.4,15,20.6,29.8,3.9,17.9-.7,43.6-27.5,76.5-20.1,24.6-20.9,46.7-14.7,63,1.7,4.5,4,8.5,6.4,12h-.1c-15.9,7.1-30.9,11.3-43.5,13.2-1.6.2-3.3.5-4.8.6,3.7-3.5,6.9-7.5,9.4-11.9.8-1.5,1.6-3.2,2.3-5,1.1-2.9,2.1-6.1,2.4-9.2-8.6.4-18.7,3.5-31.4,13.4-8.8,6.8-17.4,11.7-24.9,14.9-7.5,3.2-13.8,4.4-17.8,4.1l-.2,2h0v.4c9.7,4.7,20.2,7.6,30.8,5.9,5.1-.8,10-2.3,14.6-4.5,10.5,6.9,21.9,11.9,34.5,13,25.7,2.3,52.1-7.6,69.1-25.6.6-.6,1.2-1.3,1.7-2-10.3,41.4-25.6,80.7-45.4,117.4-4.4-6.6-4.7-15.1-5-24.1,0-28.1-10.6-45.9-31.4-54.6-29.7-12.5-52.4-1.3-66,8.7-2.5,1.8-4.8,3.5-6.9,4.9h0c-.8.4-1.5.8-2.3,1.2-8.8,5.4-17.4,7.5-28.1,3.5-15-5.6-25.1-15-31.6-29.4-5.9-13.4-7.2-27.3-6.7-41.7,0-1.3-.9-2.6-1.8-3.9-.4-.6-.8-1.1-1.1-1.7h0s0,0,0,0c-.4.6-.9,1.2-1.4,1.7-1.2,1.3-2.3,2.6-2.3,3.9-.5,13.9-.3,27.8,4.3,40.9,3.5,9.4,8.8,17.4,16.6,24.1,3.9,3.4,8,6,12.5,8,5.7,2.6,11.8,4.2,18.2,5.4,14.2,2.7,28.1,3.5,42,1.1,11.8-2.1,22.4.3,32.9,5.3-3.9,1-8,.7-12.1.4h0c-2.3-.2-4.7-.4-7-.3-3.3,0-6.5.6-9.6,2.4h0,0s22.6,11.7,22.6,11.7l3.2,1.7,4,2h0c0,.1.1.2.1.2l-.7,1.7c-7.5.4-42.4-10.7-57.9-18-5.2,9.3-8.7,33,19.1,53.4,34.8,25.5,57.9,9.8,70.1,0,8.2-6.6,18.6-6.5,24.9-5.2-27.8,50.8-64.2,96.3-107,134.6-6.7-6.9-13.6-13.1-21.1-18.1-5.2-3.5-10.6-6.5-16.5-8.8-3.3-1.4-6.8-2.6-10.2-3.7l-.6-.2-.5-.2-.7-.2-.9-.3-.7-.2-1.2-.4h0c-1.5-.5-2.9-.9-4.2-1.3-3-.9-5.8-1.7-9.1-3.1-18.7-9.1-25.8-15.2-39.2-36.9-7.5-12.6-14.5-25.7-16.6-40.1-2.1-15.5-.8-31,3.8-46,1.9-6.1,0-11-3.8-15.5-3.5-4-8.3-4-10.7-.3-2.9,4.8-4.6,11-5.1,16.6-.4,3.7.4,7.6,1.2,11.4h0c.3,1.7.7,3.3.9,4.9.6,3.5,1.1,7,1.6,10.5h0c1.4,9.7,2.7,19.3,5.7,28.5,5.3,16,12.8,31.3,23.5,45.2,12.8,16.9,17.8,20.9,29.5,28.3l12,7.3,15.5,9.5-.3.6-.2.4v.2c-.3.3-.5.6-.6,1-11.2-1.9-21-7.2-31-12.6-5.6-3-11.2-6-17.1-8.5,10,21,54,45,88.4,39.2-16,13.7-32.8,26.4-50.4,38-1.2-2.3-2.5-4.9-3.9-7.4-4.1-7.5-11-19.9-14.1-24.9l-.4-.6-.2-.4-.3-.5c-.3-.5-.7-1.1-1-1.6h0l-.2-.4-.3-.4-.2-.3c-1.7-2.6-3.4-5.3-5.1-7.9-1.1-1.6-2.5-2.9-3.9-4.1l-1.4-1.1c-2.4-1.9-4.9-3.8-6.7-7.1-8.9-15.4-19.4-30-29.7-44.4h0s-.2-.3-.2-.3l-3.2-4.5c-19.2-27.3-38.5-54.5-58.3-81.6-14.4-19.5-29.4-38.8-44.4-58-7.5-9.5-15-18.9-22.6-28.3-7.6-9.5-15.3-18.9-22.9-28.3-.7-.9-2-1.3-3.9-1.9-.8-.3-1.8-.6-2.8-1,9.4,14.4,17.4,27,25.4,39.8,5.4,8.7,10.7,17.4,16,26.2h0s0,0,0,0c9.7,16.1,19.5,32.1,29.7,47.9,11.1,17.5,22.7,34.5,34.3,51.6h0s0,0,0,0h0c0,0,0,.1,0,.1,4,5.8,7.9,11.7,11.9,17.5l1.1,1.6,1,1.5c14.5,21.4,29.1,42.9,43.9,64,3.8,5.4,7.6,10.8,11.6,16.1,4.1,5.4,8.3,10.8,12.7,16,3.4,5.3,15.6,13.7,23.5,18.8,3.6,2.3,7.3,4.5,10.8,6.4-79,51.1-173.2,80.8-274.3,80.8v25c293.1,0,530.8-237.6,530.8-530.8S823.9,0,530.8,0h0ZM530.8,69h-.4c-2.7,0-5.2,1.1-7,2.9-1.7,1.8-2.8,4.2-2.8,6.9,0,5.4,4.4,9.8,9.8,9.8h.2c0,0,0,0,.2,0h.1c0,0,0,0,.2,0h.2c5.4,0,9.8-4.4,9.8-9.8s-1.1-5.1-2.8-6.9c-1.8-1.8-4.3-2.9-7-2.9h-.4ZM530.8,158.6l-1.4-2.8c-16.8-39.6-55.7-67.4-101.2-68.2,0-5.9-4.8-10.7-10.7-10.7h-94.2c-5.9,0-10.7,4.8-10.7,10.7v21.3c0,5.9,4.8,10.7,10.7,10.7h94.2c2.2,0,4.2-.7,5.9-1.8.5-.3,1-.7,1.5-1.2l.5-.5.8-1c.3-.4.5-.8.8-1.2l.3-.6.4-1.1c.2-.5.3-1.1.4-1.7,0-.5.1-1.1.1-1.7v-2.7c50.6,1,91.3,42.3,91.3,93.1h22.5c0-50.8,40.7-92.1,91.3-93.1v2.7c0,.6,0,1.1.1,1.7.1.6.2,1.1.4,1.7l.4,1.1.3.6c.2.4.5.8.8,1.2l.8,1,.5.5c.5.4.9.8,1.5,1.2,1.7,1.1,3.7,1.8,5.9,1.8h94.2c5.9,0,10.7-4.8,10.7-10.7v-21.3c0-5.9-4.8-10.7-10.7-10.7h-94.2c-5.9,0-10.7,4.8-10.7,10.7-45.5.8-84.4,28.6-101.2,68.2l-1.4,2.8ZM530.8,208.2h0c-8.1,0-16.2,0-24.3,0s-.8.1-1.2.4c-.4.2-.8.5-1.3.9l-.2.2-.5.4-.8.5c.5.4,1,.9,1.5,1.5l.6.6.7.7c.4.4.8.6,1.3.7,5.3.2,10.7.1,16,0h8s.2,0,.2,0h8.3c5.3.1,10.7.2,16,0,.4-.1.8-.3,1.3-.7l.7-.7.6-.6c.5-.5,1-1.1,1.5-1.5l-.8-.5-.5-.4-.2-.2c-.4-.3-.8-.6-1.3-.9-.4-.2-.8-.4-1.2-.4-8,0-16.2,0-24.3,0h0ZM530.8,221.1h-4.6c-4.3,0-8.6,0-12.8.1-1.6,0-3.2,1-4.8,1.9-.8.5-1.6,1-2.4,1.3.3.8.3,1.9.3,2.7,1.1.3,2.2.7,3.3,1.1h0c1.8.7,3.6,1.4,5.5,1.5h0c5.2.2,10.3.3,15.5.3h0c5.2,0,10.3-.2,15.5-.3h0c1.8-.2,3.6-.8,5.5-1.5h0c1.1-.4,2.2-.8,3.3-1.1,0-.8,0-1.9.3-2.7-.8-.4-1.6-.8-2.4-1.3-1.6-.9-3.2-1.9-4.8-1.9-4.2,0-8.5-.2-12.8-.2h-4.6ZM530.8,239.7h-17.1c-4,0-5.1,2.4-2.9,5.9l.6.9c.5.6,1,1.1,1.5,1.5,2.4,2.1,10.4,3,17.9,2.7h0c7.4.3,15.5-.7,17.9-2.7.5-.4,1-.9,1.5-1.5l.6-.9c2.1-3.5,1.1-5.9-2.9-5.9h-17.1ZM530.8,265.1h-1.3c-12.3,0-12.8,0-13.1,12.6-.2,11.4,0,22.9,0,34.4h0v15.6c.1,0,.2,9.4.2,9.4v13.7c-18.2-26.9-47.9-45.4-82-48.4v-1.3c0-5.9-4.8-10.7-10.7-10.7h-90.5c-5.9,0-10.7,4.8-10.7,10.7v17.8c0,5.9,4.8,10.7,10.7,10.7h90.5c5.9,0,10.7-4.8,10.7-10.7v-.4c39.8,4.1,72.3,32.9,81.9,70.8v18.3s.1,10.8.1,10.8c0,3.8,1.3,10.7,2.9,11,3.6.8,7.4.7,11.2.4h0c3.8.3,7.6.4,11.2-.4,1.6-.3,2.9-7.2,2.9-11v-10.8c0,0,.1-18.3.1-18.3,9.6-37.9,42.1-66.7,81.9-70.8v.4c0,5.9,4.8,10.7,10.7,10.7h90.5c5.9,0,10.7-4.8,10.7-10.7v-17.8c0-5.9-4.8-10.7-10.7-10.7h-90.5c-5.9,0-10.7,4.8-10.7,10.7v1.3c-34.2,3-63.9,21.5-82,48.4v-13.7s0-9.4,0-9.4v-14.3c.1,0,.1-1.2.1-1.2h0c.1-11.5.3-23,0-34.4-.3-12.6-.8-12.6-13.1-12.6h-1.3ZM530.8,461.2h-.1c-5.4,0-10.5,4.9-10.5,10.3s5.1,10.6,10.5,10.6h.2c5.4,0,10.5-5.2,10.5-10.6s-5.1-10.3-10.5-10.3h-.1ZM530.8,615.6h0c-5.4,0-10.5,4.9-10.5,10.3s5.1,10.6,10.5,10.6h0c5.4,0,10.5-5.2,10.5-10.6s-5.1-10.3-10.5-10.3h0ZM530.8,652h-3.8c0,.1-1.7.2-1.7.2-1.6,0-2.9.2-4,.4-4.6,1-4.6,4.2-4.6,14.4,0,17.6,0,35.1,0,52.7l.2,28c0,12.9.3,12.9,12.8,12.9h2.1c12.6,0,12.8,0,12.8-12.9l.2-28c0-17.6,0-35.1,0-52.7s0-13.3-4.6-14.4c-1.1-.2-2.4-.4-4-.4h-1.7c0,0-3.8-.2-3.8-.2h0ZM530.8,775.3h0c-4.8,0-9.6.1-14.4.3-.3,0-.7.1-1.1.3-.4.2-.7.4-1.1.7l-.9.7-1.1,1c-1.1,1.3-2.1,3.5-1.9,5.1,0,.5,1.1,1.1,2.3,1.5.8.3,1.6.4,2.3.4,5.3.3,10.6.3,16,.3h0c5.4,0,10.7,0,16-.3.6,0,1.5-.2,2.3-.4,1.2-.4,2.3-1,2.3-1.5.3-1.6-.8-3.7-1.9-5.1l-1.1-1-.9-.7c-.4-.3-.7-.5-1.1-.7-.4-.2-.8-.3-1.1-.3-4.8-.2-9.6-.3-14.4-.3h0ZM530.8,795.5h0c-7.2-.3-14.4.6-21.6,2.5l-.3.7-.3.6c-.2.4-.4.8-.5,1.2.4.2.9.5,1.3.8l1.7,1.2c1.1.7,2.3,1.4,3.4,1.6,5.5.1,10.9.2,16.3.2h0c5.4,0,10.8,0,16.3-.2,1.1-.1,2.3-.8,3.4-1.6l1.7-1.2c.4-.3.9-.5,1.3-.8-.1-.4-.3-.8-.5-1.2l-.3-.6-.3-.7c-7.2-1.8-14.4-2.7-21.6-2.5h0ZM530.8,810.7h0c-13.1-.4-26.3,1.8-28.6,6.2,9.7.6,19.2.8,28.6.6h0c9.4.2,18.9,0,28.6-.6-2.3-4.4-15.5-6.6-28.6-6.2h0ZM530.8,825.5h0c-5.6-.1-8.4-.1-10,1.2-1.6,1.4-2,4.1-2.9,9.5v.8c-.1,0-11.4,70.6-11.4,70.6-1.9,12.5-3.7,25.4-5.1,37.9,0,.3,0,.8.4,1.2l.7.8.7.7c.4.3.7.6,1.1.8.6.4,1.3.7,1.7.7,8.2.3,16.4.4,24.8.5h0c8.4,0,16.6-.2,24.8-.5.5,0,1.1-.3,1.7-.7.4-.2.7-.5,1.1-.8l.7-.7.7-.8c.3-.5.4-.9.4-1.2-1.3-12.5-3.2-25.4-5.1-37.9l-11.2-70.6v-.8c-1-5.4-1.4-8.2-3-9.5-1.6-1.4-4.4-1.4-10-1.2h0ZM530.8,959.2h-56.5c-2.9,0-5.8-.2-6.1,4.3,0,1.6.3,2.6.8,3.4.3.5.8.9,1.3,1.1.4.2.9.3,1.4.4.5,0,1.1.1,1.6.1h1.6s.9,0,.9,0h112.5c.6,0,1.1,0,1.6-.2.5,0,.9-.2,1.4-.4.5-.2.9-.6,1.3-1.1.5-.8.8-1.8.8-3.4-.2-4.5-3.2-4.4-6.1-4.3h-1.2s-53.2,0-53.2,0h-2.1ZM530.8,975h-48.1c-.8,0-1.6.3-2.4.5l-.6,1.2c-.2.5-.4.9-.8,1.2l1.8,1.2c1.4.9,2.9,1.7,4.6,2.3,1.1.4,2.2.7,3.4,1,3.6.9,7.2,1.8,9.5,5.7l.2.3c.2.2.4.3.6.5l.9.5c1.3.6,3,.9,4.2.9l13.7.2c4.3,0,8.6,0,13,0h0c4.3,0,8.6,0,13,0l13.7-.2c1.2,0,2.9-.3,4.2-.9l.9-.5c.1,0,.2-.1.3-.2.1,0,.2-.2.3-.3l.2-.3c2.2-3.9,5.9-4.8,9.5-5.7,1.1-.3,2.3-.6,3.4-1,1.7-.6,3.2-1.4,4.6-2.3l1.8-1.2c-.3-.3-.5-.7-.8-1.2l-.6-1.2c-.8-.3-1.6-.5-2.4-.5h-48.1ZM530.8,1000.4h-39.3c4.8,4.6,22.4,6.8,39.3,6.5h0c16.9.3,34.4-1.9,39.3-6.5h-39.3ZM70.4,401l.4-3.9h-3c-6.5,16.8-17.1,52.1-21.6,67.7-6.1-4.5-11.1-9.1-15-13.8-4.1,26-6.2,52.6-6.2,79.7s3.6,70.1,10.6,103.5c10.6-1,23.3.4,39.5,6.6,2.5-3.3,4.8-7.2,6.5-11.7,5.2-13.7,5.1-33-13.5-55.9-27.7-33.9-33.4-61.8-28.9-82.5,2.2-10,6.7-18.2,12.1-24.4,5-9.9,11.1-18.8,18.8-26.6,8-8,12-17.6,13.7-28.4-2.9,2.5-4.9,5.8-6.9,9.2h0c-1.1,1.9-2.3,3.9-3.6,5.6-1.8,2.5-4,4.7-7.1,6.2h0s3.2-23.8,3.2-23.8l.4-3.1.6-4.5h-.1ZM181.6,249.6c18.6,16.5,38.5,30.9,64.5,35.2h.2c0,.1,0,0,0,0h.2s0,0,0,0c0-.1,0-.2-.1-.3v-.2c1.5-24-11.7-69.5-76.7-65h-1c0,0-1.1.2-1.1.2-5.2.5-10.3,1.7-15.1,2.8-8.9,2.1-16.4,3.9-20.2,0,0,.5.4,1.1.9,1.7h0s0,0,0,0c.2.3.5.5.7.8,2.7,3.2,2.5,5.8,2.2,8.9,0,.3,0,.6,0,.9-1.1,16.4,1.2,29.8,5.3,40.4.8,2.2,1.6,4.2,2.4,6,8.4,17,25.6,30.2,45,34.3,12.7,2.7,25.5-.1,37.5-5.1v-.5c0,0,0,0,0,0v-2.4h-1.1c-15.3-2.6-28.4-16-37.5-29.2,3.5,2.3,7.3,4.3,11.3,6.1,2.9,1.3,5.8,2.6,8.7,3.8h0c12.7,5.6,25.3,11.2,37.3,18.4,20.9,12.6,33.7,32.6,43.1,54.8,5.6,13.1,6.9,26.7,6.7,40.9h0c0,13.9,0,27.5.3,41.4,0,.5,0,.9,0,1.4-.1,3.2-.3,6.9,4.8,6.9s4.8-3.3,4.4-6.3v-1.1c-.1,0-.2-1-.2-1,.1-7.6.1-15.2.1-22.7s0-15.1.1-22.7c.5-35-12.3-64.2-38-87.7-11.8-10.7-25.7-17.4-40.1-23l-3.2-1.3-4.1-1.7c-2.3-1-4.6-2-6.8-3.1-3.6-1.8-7.1-3.8-10.5-6-1.5-1-3-2.1-4.4-3.2l-2.7-2.2-1.8-1.6c-3.7-3.5-7-7.5-9.9-12.2l-.6-1.1c-.3-.5-.5-1-.7-1.5v-.2c0,0-.2-.3-.2-.3v-.3c-.4-.6-.6-1.3-.9-1.8,0-.4.3-.6.6-.9l.4-.4ZM185.3,351.4l1.5-.3,1.2-.2h.8c2.5.3,4.9.8,7.3,1.3h0c4.7.9,9.3,1.9,14.1,1.9,11.2-.1,20.8,2.6,28.4,7.7.8.5,1.6,1.1,2.3,1.7l2.2,1.8,1.8,1.7c2.1,2.1,4,4.5,5.6,7.1,2.6,4.1,4.6,8.9,6,14.1,2.1,8.3,2.7,16.8,3.2,25.4.4,6.7.2,13.5.1,20.3h0s-.1,4.7-.1,4.7v5.8c0,3.7,0,7.2,5.3,7.5.9,0,1.6,0,2.2-.3.7-.2,1.2-.5,1.6-1,1-1.2.8-3.1.6-4.8v-.4s0-.2,0-.2c0-.1,0-.2,0-.3-.2-4-.4-8.1-.5-12.1-.6-12.8-1.1-25.6-2.1-38.4-.2-2.3-.6-4.5-1.1-6.6-.4-1.4-.8-2.8-1.3-4.2-1.3-3.7-3.1-7.2-5.1-10.6-.7-1.1-1.4-2.2-2.2-3.3l-2-2.7c-2.1-2.7-4.4-5.3-6.7-7.9-10.2-11-21.1-20.6-35-25.7-9.1-3.5-19-4.8-29.7-3.5-7.1,1-13.1,3.5-18.5,6.9-6,3.7-11.4,8.4-16.8,13.2h0l-1.1,1-.8.7c-1.1,1-2.1,1.9-3.2,2.9-2.1,1.9-4.3,3.8-6.4,5.9-1.1,1.1-1.9,2.7-1.9,4s1.4,1.4,2.5,1.9l.5.2c11.8,5.1,23.3,1.6,34.8-1.9,4.9-1.8,10-3,15.9-4.5l5.7-1.4c-2.8-2.6-4.9-4.3-7.1-6.1l-.8-.6c-.2-.2-.4-.3-.6-.5l-.4-.3ZM223.8,326.3c3.3,2.4,6.3,4.4,9.2,6.4h0c3.9,2.7,7.5,5.1,10.9,7.8,8.6,6.4,15.5,13.7,20.8,21.8l1.1,1.8.7,1.2,1.3,2.3c.7,1.4,1.5,2.7,2.1,4.1.6,1.3,1.2,2.6,1.7,3.9l1.2,3,.7,2c2.1,6.4,3.5,13.1,4.1,20.2.3,2.9.4,5.9.4,9v19.4c.1.7.2,1.3.3,2,.2.9.4,1.9.6,2.9v.6c.1,0,1.3.4,1.3.4l1,.4,1.2-1.6c1.1-1.3,2.3-2.7,2.3-4,0-1.6.1-3.2.2-4.9h0c.3-6.2.6-12.4.6-18.6,0-9.9-1.1-19.8-4.5-29.2-2.6-7.4-6.1-14.2-10.5-20.4-5-7.1-11.2-13.3-18.7-18.4-5.5-3.9-11.6-6.8-17.8-9.8-1.9-.9-3.8-1.8-5.8-2.8-.2-.2-.9,0-2.8.3l-1.8.3ZM436.1,210.3c-1.1.6-2.4.9-4,1.3h-.2s-.3,0-.3,0h-.3c0,0-.1.1-.1.1h-.3c0,0-.8-.3-.8-.3h0c-1.2-.5-2.7-1.2-2.9-2.1,0-1,.3-2.4,1-3.5.3-.6.7-1,1.2-1.3,7.5-4.6,15-9.1,22.7-13.1,1.4-.6,3.3-.3,5.1,0,.6,0,1.1.2,1.6.2-.4.9-.6,1.8-.9,2.8-.5,1.8-1,3.5-2,4.2-4.7,3.1-9.6,5.9-14.5,8.6l-.6.3-4.7,2.6ZM454,244.4l-1,.6c-1-.6-1.9-1-2.7-1.4h-.1c-1.3-.7-2.3-1.1-2.6-1.8-.5-1.1.3-3.7,1.3-4.5,6.4-4.3,13.1-8.3,20-12,1.1-.8,3.7,0,4.5,1.1.8,1.1,1.1,4,.3,4.5-3.7,2.7-7.3,5.2-11,7.7l-8.9,5.9ZM488,257.8h0c-.7-1-1.2-1.7-1.8-2.6l-5.9,3.1-3.3,1.7-5.5,2.7-.4.5-.4.5c-.7.9-1.6,1.8-2.5,2.7l-.7.7c-.6.5-1.1,1.1-1.5,1.6-.3.4-.6.8-.7,1.2,0,.2,0,.4,0,.6,2,4.4,5.9,2.5,8.8,1.1h0l.8-.4c3.5-1.8,6.8-4.3,10.4-6.9h.2c0-.1,4.7-3.5,4.7-3.5-.9-1.2-1.6-2.2-2.2-3ZM425.3,306.1c1.1-3-5.4-8.9-40.3-8.4l40.3,8.4ZM377.2,84.6c11.9-1.2,36.7-2.3,40.3,3.4l-40.3-3.4ZM221.2,761.6c2.5-1.1,5-2.1,7.4-3.5,22.7-12.6,35.5-33.7,46.5-55.9,4.3-8.7,7.6-17.5,9.9-26.6,1.3-4.9,2.2-9.9,2.8-15l.4-3.8c.1-1.7.2-3.3.3-5,.2-4.4,0-8.8-.3-13.3-.2-1.5-1.1-2.8-2.1-4.1-.4-.6-.8-1.2-1.2-1.7-.3.6-.8,1.2-1.2,1.8h0c-1,1.4-2,2.8-2,4.1-.5,52.4-25.9,91.4-65,124.9,1.4-.7,2.9-1.3,4.3-1.9h0ZM338.6,720.4c-1.3,1.2-2.1,2.4-2.8,3.6-.3.7-.6,1.4-.8,2.1-.7,3,.3,5.9,1.9,9,.4.8.8,1.6,1,2.5.4,1.3.6,2.6.6,3.9,1.3,19.8-1.3,39.3-5.6,58.6-.4,2.1-.9,4.2-1.2,6.3-.5,3-.8,6.2-.7,9.5l4.4-6.3.5-.7.2-.3.2-.3h0c3.8-5.5,7.6-11,11.6-16.3,3.4-4.5,6.4-9.4,8.8-14.5,1.5-3.1,2.7-6.3,3.8-9.5.7-2.1,1.3-4.3,1.8-6.5,1.6-7,2.4-14.7,1.1-21.7-1.4-6.8-3.6-13.4-7-19.2-3.3-5.6-7.8-10.6-13.9-14.5-19-12-43.6-6.9-57.2,14.5-4.9,7.9-9,16.5-13.1,25l-.6,1.2h0c-3,6.3-6,12.6-9.3,18.7-1.5,2.8-2.7,5.9-3.9,8.9-1,2.6-2.1,5.3-3.4,7.8-60.1-10.4-71.1,50.3-61.5,69.6,7.4,14.7,3.9,21.1,1.6,25.6-.7,1.4-1.4,2.6-1.6,3.8,12.7-9,26.1-10.3,39-11.5,14.2-1.3,27.9-2.6,39.5-14,26.1-25.7,10.9-55.3,0-66.8h0s-.1-.2-.1-.2c-.2.5-.4.9-.6,1.4-2.6,4.1-8.1,13.5-9.5,26-3.1,23.4-19.8,37.5-28.7,41.6h-5.9l-.3-.5c9.7-7.5,16.6-16.2,23.6-31,2.4-4.8,4.3-10.4,4.5-15.8,1.1-14.2,7.7-25.7,14.6-37.5h0s.4-.7.4-.7c2.2-3.8,4.3-7.6,6.3-11.5l4-7.4,2.3-4.1c1.4-2.4,2.9-4.9,4.5-7.2,5.4-8,11-16.3,18.2-22.5,8.3-7,22.5-8,33.2,1.1ZM496.8,823.6c6.2-1.3,12.8,4.3,12.8,10.4-.3,2.1-.5,4.3-.7,6.6v.2s-.6,6-.6,6l-1.1,6.9c-2.3,13.9-4.6,27.7-6.6,41.5l-1.8,11.2-2,13.2c-1.2,8.2-2.4,16.4-3.7,24.6l-.3,1.1-.3.9c-.3.9-.7,1.6-1.2,2.2l-.7.7c-.3.3-.7.6-1.1.8-.7.3-1.4.5-2.3.5-1.5,0-3.1-.7-4.9-2l-3.6-2.8c-8.9-6.8-9.5-7.3-5.2-19.4v-.7c.1,0,.3-.9.3-.9v-.3s.3-1.3.3-1.3c1.5-7.2,3-14.4,4.5-21.7h0l2.3-10.7,2.3-10.9.3-1.2.4-1.6h0c1.1-4.9,2.2-9.7,3.1-14.6,1.1-5.4,2.1-10.8,3.1-16.2h0c1.2-6.6,2.5-13.1,3.8-19.6.3-1.1,1.9-2.7,2.9-2.9ZM287.2,697.2c9-2.1,12.8-8,16.4-13.6.9-1.4,1.8-2.8,2.8-4.1,20.1-28.1,55.6-35.5,83.9-19.8,2.8,1.5,5.2,3.4,7.4,5.6,6.3,6.3,10.5,14.9,13.4,23.9.3,1,1.1,1.8,2,2.7h0c.5.6,1.1,1.2,1.5,1.8.4-.4.8-.8,1.2-1.3h0c1.2-1.2,2.4-2.4,2.5-3.8,1.6-10.2-3.5-18.2-8.8-25.9-2.6-3.8-5.4-7.1-8.5-10-3.6-3.3-7.7-6.1-12.1-8.2-2.5-1.2-5.1-2.3-7.9-3.1l-2.7-.8-2.8-.7-1.2-.2c-17.5-3.3-32.7-1.3-46.2,5.3-6.7,3.3-12.9,7.7-18.8,13.2-3.3,3-6.4,6.4-9.4,10.1-6.7,7.8-9.6,17.7-12.8,28.9ZM402.2,965.6h-20.1c-6.1.3-9.1,3.5-9.1,9.6s4,6.4,8.6,6.4h38c5.6,0,11.2-9.6,8.3-14.4-.8-1.3-3.2-1.9-5.1-1.9-3.3,0-6.6,0-10,.1h-2.2c0,0-8.4.1-8.4.1ZM451.9,892.3h-8.7s-2.9,0-2.9,0c-5.7,0-11.3-.1-16.9,0-5.8,0-11.5.2-17.3.6-2.7.3-6.7,7-7.2,11-.3,1.8.2,2.9,1.2,3.5,1.2.7,3,.8,4.8.8h2s29.4,0,29.4,0h.6c4,.1,6.6.2,8.4-.6,3.1-1.3,4.1-5.1,6.5-15.2ZM383.2,892h0c-10.4-.2-21-.3-31.5.7-2.5.2-4.7,3.2-6.9,6.4-1.1,1.5-2.2,3.1-3.3,4.3.5.4,1,1,1.6,1.5,1.3,1.3,2.5,2.6,4.1,2.8,4,.6,8.1.6,12.1.5h3.1s18.7,0,18.7,0c9.1,0,14.2-5.6,13.6-16-3.8,0-7.7,0-11.5-.1h0ZM436.1,873.1h12c9.4,0,10.7-.8,12.6-9.9.3-1.6-2.1-5.1-3.5-5.1-12.3-.5-24.3-.8-36.6.3-.8,0-1.6.8-2.4,1.8-1,1.2-1.9,2.9-2.8,4.6h0s-.1.3-.1.3l-1.2,2-.9,1.5c.8.5,1.6,1,2.4,1.6,1.8,1.3,3.5,2.5,5.4,2.7,1.1.2,2.1.3,3.2.4h1.1c0,0,1.8.1,1.8.1h3.9c0-.1,1.8-.2,1.8-.2h3.5ZM307.3,965.4h52.1c.3,0,.6,0,.9-.2l1-.4c3.2-1.3,4.8-3.2,1.6-6.4-1.6-1.7-3.3-3.1-5.2-4.1-2.2-1.1-4.6-1.7-7.4-1.5-8.2.4-16.3.4-24.4.3h-.1c-2.7,0-5.4,0-8.1,0s-6.2,1.1-8,3.2c-.7.9-1.3,1.9-1.7,3.1-.6,1.7-.8,3.7-.7,6ZM412.9,930.3h26.2c1.6,10.7-.3,13.1-9.6,13.1h-36.9c0,0-4.9-.4-4.9-.4h-1.8c0-10,2.4-12.7,11-12.7h16ZM408.1,857.9h-27c-3.2,0-11.8,8.8-11,11.5,0,.3.3.7.6,1,.2.3.6.5.9.7.7.4,1.6.7,2.2.7,3.6.3,7.2.4,10.8.6l3.5.2,4.5.3,3.7.3c9.1.5,13.4-4.8,11.8-15.2ZM383.2,816.4c-.7.6-1.5,1.1-2.3,1.6h-.1c-1.3,1-2.6,1.8-3.2,2.9l-23.5,35.5-19.8,29.8c-2.1,3.2-4.3,6.4-6.4,9.7l-9.4,13.6c.5.5,1.1,1.1,1.6,1.3,1.7-1.9,3.4-3.7,5.1-5.6h0s0,0,0,0h0c3.5-3.8,7-7.6,9.9-11.8,10.2-14.7,19.8-29.7,29.4-44.6,6.1-9.3,12-18.7,17.9-28.3.3-.5.3-1.2.4-1.9,0-.7.1-1.4.4-2.1ZM458.9,832.1h8.8s.1,1.8.1,1.8v1.8s-.1,1-.1,1v.7c-.2.8-.4,1.5-.6,2.1-.3.7-.7,1.4-1.2,2l-.6.6c-.2.2-.5.4-.7.5l-.4.2c-.3.2-.7.4-1.1.5-.5.1-1.1.3-1.7.3-8.1.6-16,.4-24,.1-1.8,0-3.6-.1-5.4-.1-.4,0-.8-.2-1.2-.5-1.2-.7-2.5-1.8-3.2-2.7-.3-.4-.5-.7-.4-.9l.2-.5c1.4-2.7,3.4-6.7,5.1-6.7,8.8-.4,17.6-.4,26.5-.3ZM356.7,942.4c5.9.4,11.6.6,17.4.5.5,0,1.1-.5,1.6-1.3.4-.6.8-1.3,1.2-2.1l1-2.2,1-2.3.8-1.5-2.3-1.2c-1.5-.8-3-1.5-4.4-1.7-4.3-.2-8.5-.1-12.8,0h0c-2.1,0-4.3,0-6.4,0-6.7-.6-9.4,2.9-10.7,10.9l9,.5,4.7.3ZM391.9,843.4c-1.9-.4-3.8-.9-5.7-1.6,1.6-5.5,4.3-8.2,7.8-9.3l.8-.3,1.3-.2,1.4-.2h.8s1.3,0,1.3,0h2c4.8.5,9.5.3,14.2.2h0c2.4,0,4.8-.1,7.2-.1.1.4.2.7.3,1.1v.2c0,0,0,.1,0,.1,0,0,0,.1,0,.2l.2.5c-.6.8-1.1,1.8-1.6,2.7-1.6,2.7-3.1,5.5-5.3,6.1-4.3,1-8.6,1.6-13,1.7-1,0-2,0-3,0-2.9-.1-5.9-.5-8.8-1.1ZM486.4,759.2c-2.4.2-4.8.5-7.3.8h0c-6.2.7-12.5,1.4-18.6,1.4-4.8.2-9.6-.3-14.4-.9-2.4-.3-4.8-.5-7.3-.7h-1.1s-1.2,0-1.2,0h-1.5s-.9.2-.9.2c-.4,0-.8.2-1.2.4-1.3.5-2.9,2.4-2.9,3.7s2.1,2.9,3.2,2.9c3.1,0,6.1-.3,9.2-.5,4.6-.3,9.1-.6,13.8-.6s4.5.3,6.7.5l2.9.4,2.1.3h2c2.7.3,5.3.3,8,.2h0c1.3,0,2.7,0,4,0,4.3,0,6.4-1.9,4.5-8ZM464.4,804h-7.4c-3.7,0-7.5,0-11.2.4-.9,0-1.7.6-2.5,1.4s-1.6,1.9-2.4,2.9c-.8,1-1.5,2.1-2.4,2.9l1.3,2.1c2.6,0,5.2,0,7.8,0h0c7.9,0,15.9.1,23.7-.3,1.1,0,2-2.1,3-4.3.5-1.1,1-2.3,1.6-3.2l-.5-.7c-.4-.4-.8-.8-1.3-1.2h-3.1s-6.6-.1-6.6-.1ZM439.9,744.5h49.5v.3c.3.3.4.7.6.9.1.2.3.3.5.4l-1.4,1.3c-1.2,1.2-2.5,2.5-3.7,2.5-13.6.3-27.5.3-41.2,0-1.3,0-2.6-1.1-3.8-2.2-.5-.5-1.1-1-1.6-1.3l.6-.9.5-.9ZM436.1,803.8c-3.2,0-6.3,0-9.5-.1-5.6,0-11.2-.1-16.7.4-1.4.1-2.6.9-3.9,2.1-.8.7-1.5,1.5-2.3,2.4h0s-.2.2-.2.2c-.8.9-1.7,1.8-2.5,2.6.3.8.5,1.6,1.1,2.4,2.8,0,5.6,0,8.5,0h0c7.2.1,14.4.2,21.4-.4,1.5-.2,2.7-2.5,3.9-4.7.6-1.1,1.1-2.2,1.7-3h-.1c-.5-.6-1-1.1-1.5-1.9ZM457.8,788.6h0c7.1,0,14.1.1,21.1-.3,1.3,0,2.7-4,3.2-6.4,0-.2-.2-.5-.5-.8-.6-.5-1.5-1.2-2.5-1.6-.6-.3-1.1-.5-1.6-.6-2.3-.1-4.6,0-6.9,0h-3.2s-2.5,0-2.5,0c-1.1,0-2.1,0-3.2-.2-6.7-.5-10.2,2.2-11.2,9.9,2.4,0,4.7,0,7,0h.2ZM424.7,788.7h-7.5c.8-6.8,2.9-10,8.8-9.7h4.3s5.2,0,5.2,0c2.3,0,4.7.1,7.1.3,1.2,0,2.3.9,3.5,1.8.6.5,1.2,1,1.9,1.4-.6.7-1.3,1.5-1.9,2.4-1.2,1.6-2.3,3.3-3.7,3.5-2.8.3-5.6.4-8.5.4h-5s-4,0-4,0ZM482.4,709.2h0c-1.5,0-3,0-4.5,0-3.2-.2-6.6,0-9.9,0h0c-1.6,0-3.3,0-4.9,0s-2.2-.8-3.2-1.7c-.4-.3-.9-.7-1.3-1,.6-.4,1.1-.9,1.6-1.3.9-.8,1.8-1.6,2.7-1.6,3.9-.1,7.8-.2,11.7-.2h7.3s9.6.2,9.6.2c1.1,0,2.2.9,3.4,1.8.5.4,1,.8,1.4,1.1l-1.1.6-.6.4c-1.1.7-2.2,1.5-3.4,1.6-3,.2-5.9.1-8.9,0ZM493.6,731.1c-1.1-.2-2.2-.6-3.3-.9h-.1s0,0,0,0c-2.4-.7-4.8-1.4-7.2-1.4-5,.1-10.1.3-15.3.5-3.7.2-7.4.4-11.1.6l-6.8.5c-.9,0-1.8.7-2.7,1.4-.5.4-.9.7-1.4,1,.4.3.7.6,1.1,1,.7.7,1.4,1.4,2.1,1.4,13.9,0,28.1,0,42-.3.8,0,1.6-.5,2.2-1.1l.3-.9c.1-.5.3-1.1.3-1.8ZM493.5,717.7h.1c.6.5,1.3.9,1.9,1.1l-.8,2.4h-42c-.1-.2-.3-.4-.4-.7h-.1c-.2-.4-.4-.7-.5-.9l1.5-1.2c.7-.6,1.4-1.1,2.1-1.6.5-.3.9-.5,1.4-.6h.2s.4,0,.4,0c4.1,0,8.2-.2,12.3-.2h6.2c4.7,0,9.4,0,14.1.2h.3s.6.2.6.2l.5.2.7.3,1.5.9ZM324.2,923.6h0c-1,1.6-2,3.2-3,4.7-.7,1-1.4,1.9-2.1,2.9-.9,1.1-1.9,2.2-2.9,3.2-2.8,2.6-6.2,4.4-9.8,6.3h0l-2.5,1.3c-1.2.6-2.3,1.3-3.5,2,9.6,4.6,28.3-11.2,26.7-24.9-1,1.5-1.9,3-2.9,4.5ZM501.6,681.9c-6.1-1.5-11.6-1.7-17.1-1.5-3.1.1-6.1.4-9.2.6h-.3s-3.8.3-3.8.3c.9.8,2.4,1.5,4.3,2,2.2.6,4.8,1,7.6,1.1,6.8.4,14.6-.4,18.6-2.6ZM477.9,673.9h24.6c-4.5-3.7-17.1-4.3-24.6,0ZM497.1,693.7h-31.3v2.4c5.7.6,11.4.8,17.1.7,4.7,0,9.5-.3,14.2-.7v-2.4ZM390.8,805.2h0c-2.6,3.7-5.2,7.4-7.9,11,.9-6.5,4.6-11.5,8.4-16.4h0c1.8-2.3,3.5-4.6,5-7.1l2.4,1.6c-2.7,3.6-5.3,7.3-7.9,10.9h0ZM487.7,662.7h14.2v1.3h-14.2v-1.3ZM202.9,663.3c0,5.4,4.4,9.8,9.8,9.8s9.8-4.4,9.8-9.8-4.4-9.8-9.8-9.8-9.8,4.4-9.8,9.8ZM500.8,641.3c-.5-.8-.9-1.6-1.3-2.4-.8-1.5-1.5-3.1-2.7-4.3-2.4-2.7-4.8-5.3-7.3-8h0s0,0,0,0h0s0,0,0,0l-3.7-4-3.7-4.1-3.7-4.2-3.1-3.7c-2.2-2.7-4.4-4.7-7.1-5.8-.9-.4-1.8-.6-2.7-.8-.6-.1-1.1-.2-1.7-.2h-1.6c-58.3,0-116.5,0-174.8,0h0c-58.3,0-116.6,0-174.9.1h-1.9c-3.1-.3-6.3-.6-6.9,4.3-.8,5.9,1.1,8.6,7.8,8.6,4.7.1,9.4.2,14,.2,7.3,0,14.7,0,22,0h156s65.3,0,65.3,0l66.4-.2c2.9,0,5.8-.1,8.8-.2h0c4.8-.2,9.7-.4,14.5,0,2.7,0,5.3,2.2,7.5,4l2,1.7c2.2,1.9,4.4,3.9,6.6,5.9l.6.6,1.1.9.4.4.5.4c4.1,3.7,8.1,7.4,12.4,10.8,1.7,1.3,4.3,1.7,6.9,2.1h0c1.1.2,2.2.3,3.2.6l.4-.7.3-.6.3-.5.4-.6ZM287.2,480.1h173c5.9,0,9.9-.5,12.8-7.2,4.8-11.8,13.4-20.8,24.1-28.1.5-.4.9-.9,1.2-1.6l.4-1.2.3-1.4.2-1v-.3c0,0,.3-1.4.3-1.4l.2-.8h-1.8c0,0-.4-.1-.4-.1-1.8-.2-3.5-.3-5,.4-11.8,5.3-21.4,13.6-27.8,24.9-1,1.6-2,2.8-3.3,3.6-1.8,1.2-4,1.7-6.9,1.7-63.8-.1-127.4-.2-191.1-.3H111.5c-7.5,0-8.3,1.1-7.8,7.7v.8c.1,0,.3.9.3.9l.2.6.3.6c.3.5.7,1,1.1,1.3,1.4,1,3.4,1,5.3,1h176.2ZM181.5,191c.7-5.4,5.5-9.2,10.9-8.5,5.4.7,9.2,5.6,8.5,10.9-.7,5.4-5.5,9.2-10.9,8.5-5.4-.7-9.2-5.6-8.5-10.9ZM213.8,426.9c-5.4-.7-10.3,3.2-10.9,8.5-.7,5.4,3.2,10.2,8.5,10.9,5.4.7,10.3-3.2,10.9-8.5.7-5.4-3.2-10.3-8.5-10.9ZM266.9,255.9c-4.3-.5-8.1,2.5-8.7,6.8-.5,4.2,2.5,8.1,6.8,8.6,4.3.5,8.1-2.5,8.7-6.8s-2.5-8.1-6.8-8.7ZM392,701.1c-4,9-21.9,16.2-36.6,6.8-16.5-10.5-14.1-26-12.3-37.4.7-4.7,1.4-8.8.4-11.4l1.1,2.4h0c2.4,2.7,5.1,4.3,7.9,5.4l1.8.6c.7.2,1.4.4,2,.5l2.3.4c1.7.3,3.3.5,5,.6h0c3,.3,6,.7,8.8,1.4,7.8,2.1,16.9,11.4,16.9,19l-22.6-2c1,2.2,2.3,3.5,3.8,4.5.7.4,1.5.8,2.2,1.1,1.2.5,2.5.8,3.7,1.1h0s2,.5,2,.5l1.2.4c1.1.4,2.3.6,3.4.9h.1s.2,0,.2,0h.1c0,0,.2.1.2.1h.2c1.3.3,2.6.6,3.8,1.2,1.1.5,2,1.5,2.9,2.6.4.4.8.9,1.2,1.3h0s0,0,0,0ZM375.9,439.3c25.3,16.1,56,3.8,62.9-11.6h0,0c-.7-.7-1.4-1.5-2.1-2.3h0c-1.6-1.8-3.1-3.6-5-4.4-2.1-1-4.3-1.5-6.6-2h-.3c0,0-.3-.1-.3-.1h-.3c0-.1-.3-.2-.3-.2h-.2c-1.9-.5-3.9-.9-5.9-1.6l-2-.6-3.4-.9h-.1c-2.2-.5-4.4-1.1-6.4-1.9-1.3-.5-2.6-1.1-3.8-1.8-2.6-1.6-4.8-4-6.5-7.7l38.9,3.5c0-12.9-15.7-29.1-29.1-32.6-4.9-1.3-10-1.9-15.2-2.4h0c-2.9-.3-5.8-.6-8.6-1.1l-4-.7c-1.2-.2-2.3-.5-3.5-.9l-3-1c-4.9-1.8-9.5-4.6-13.6-9.3h0l-1.9-4c1.6,4.5.5,11.4-.8,19.5-3,19.5-7.2,46.1,21.1,64.2ZM143,310.9c-3.7-8.3-20.1-14.8-33.6-6.2-15.1,9.6-12.9,23.9-11.3,34.3.7,4.4,1.3,8,.4,10.4l1-2.2h0c2.2-2.5,4.7-4,7.3-4.9l1.6-.5c.6-.2,1.2-.3,1.8-.5l2.1-.4c1.5-.2,3.1-.4,4.6-.6h0c2.7-.3,5.5-.6,8.1-1.3,7.1-1.9,15.5-10.5,15.5-17.4l-20.8,1.9c.9-2,2.1-3.2,3.5-4.1.6-.4,1.3-.7,2-1,1.1-.4,2.3-.7,3.4-1h0s1.8-.5,1.8-.5l1.1-.3c1.1-.3,2.1-.6,3.1-.8h.1s.2,0,.2,0h.1s.1,0,.1,0h.2c1.2-.3,2.4-.6,3.5-1.1,1-.4,1.8-1.4,2.7-2.4.4-.4.7-.8,1.1-1.2h0s0,0,0,0ZM349.8,236.4c-14.9,7.1-18.1,25-12.9,32.8h0s0,0,0,0c.5-.1,1.1-.2,1.7-.3,1.3-.2,2.6-.4,3.5-1.1,1.1-.7,2-1.6,2.9-2.5h.1c0-.1.1-.2.1-.2h.1c0,0,.1-.2.1-.2h0c.8-.9,1.6-1.6,2.4-2.4l.9-.8,1.4-1.3h0c.9-.9,1.8-1.8,2.7-2.5.6-.5,1.3-.9,2-1.2,1.5-.7,3.3-1.1,5.5-.8l-13,17.1c6,3.8,18.2,1.1,23.7-4.1,2-1.9,3.8-4.1,5.6-6.4h0c1-1.3,2-2.6,3-3.8l1.5-1.6c.4-.5.9-.9,1.4-1.4l1.4-1.1c2.3-1.8,4.9-3.1,8.3-3.7h0s2.4.3,2.4.3c-2.6-.6-5.5-3.1-8.9-6.1-8.2-7.1-19.5-16.8-36.2-8.9ZM276.2,293.3c2.6,1.8,5.1,3.6,7.5,5.7,22.4,19.4,31.3,44.9,38,71,2.6,10.2,4.1,20.3,4.3,30.3.1,5.5,0,10.9-.7,16.3l-.5,4.1c-.3,1.8-.6,3.5-1,5.3-1,4.6-2.2,9.1-3.8,13.7-.6,1.5-2,2.6-3.4,3.7-.6.5-1.2,1-1.7,1.5-.2-.7-.6-1.5-.9-2.2-.7-1.7-1.5-3.4-1.2-4.8,12.9-54.5-5.6-102.1-40.9-147.7,1.5,1.1,2.9,2.1,4.4,3.2h0ZM234.2,369.2c.5,11.1-4.2,32.3-34.4,35.5-16.2,1.7-25.2-4.7-33.3-10.5-7.1-5-13.5-9.6-23.5-8.1,16.9-10.6,58.9-28.9,91.2-16.8ZM178.9,813.8c-3-6.8-16.5-12.2-27.7-5.1-12.5,7.9-10.6,19.7-9.3,28.3.6,3.6,1,6.6.3,8.6l.8-1.8h0c1.8-2,3.9-3.3,6-4.1l1.3-.4c.5-.2,1-.3,1.5-.4l1.7-.3c1.2-.2,2.5-.3,3.8-.5h0c2.3-.2,4.5-.5,6.7-1.1,5.9-1.6,12.8-8.7,12.8-14.4l-17.1,1.6c.7-1.6,1.7-2.7,2.9-3.4.5-.3,1.1-.6,1.7-.8.9-.4,1.9-.6,2.8-.8h0s1.5-.4,1.5-.4l.9-.3c.9-.3,1.7-.5,2.6-.7h0s.2,0,.2,0h.1s.1,0,.1,0h.1c1-.2,2-.5,2.9-.9.8-.4,1.5-1.1,2.2-1.9h0s0-.1,0-.1v-.2c.1,0,.2-.1.2-.1h.1c0-.1,0-.2,0-.2h0c0-.2.2-.3.3-.4h0s0,0,0,0ZM990.7,397.1l.5,3.9h-.1c0,0,.6,4.6.6,4.6l.4,3.1,3.2,23.8h0c-3-1.5-5.2-3.7-7.1-6.2-1.3-1.8-2.4-3.7-3.6-5.6h0c-2-3.4-3.9-6.7-6.9-9.2,1.7,10.8,5.7,20.4,13.7,28.4,7.8,7.8,13.8,16.7,18.8,26.6,5.4,6.2,9.9,14.4,12.1,24.4,4.5,20.8-1.3,48.6-28.9,82.5-18.6,22.8-18.7,42.2-13.5,55.9,1.7,4.5,4,8.4,6.5,11.7,16.2-6.2,28.9-7.6,39.5-6.6,7-33.4,10.6-68,10.6-103.5s-2.1-53.7-6.2-79.7c-3.9,4.7-8.9,9.3-15,13.8-4.5-15.6-15.1-51-21.6-67.7h-3ZM815.4,284.8c26-4.4,45.9-18.7,64.5-35.2l.4.4c.4.3.6.5.6.9-.3.6-.6,1.2-.8,1.8v.3c-.1,0-.2.3-.2.3v.2c-.3.5-.5,1-.7,1.5l-.6,1.1c-2.9,4.7-6.2,8.7-9.9,12.2l-1.8,1.6-2.7,2.2c-1.4,1.1-2.9,2.2-4.4,3.2-3.3,2.2-6.8,4.2-10.5,6-2.2,1.1-4.5,2.1-6.8,3.1l-4.1,1.7-3.2,1.3c-14.4,5.6-28.3,12.3-40.1,23-25.7,23.5-38.5,52.7-38,87.7.1,7.6.1,15.2.1,22.7s0,15.1.1,22.7v1s-.2,1.1-.2,1.1c-.3,3-.7,6.3,4.4,6.3s5-3.6,4.9-6.9c0-.5,0-1,0-1.4.3-13.9.3-27.5.3-41.4h0c-.3-14.2,1.1-27.8,6.7-40.9,9.3-22.2,22.2-42.3,43-54.8,12-7.2,24.6-12.8,37.3-18.4h0c2.9-1.3,5.8-2.6,8.7-3.8,4-1.8,7.8-3.8,11.3-6.1-9.1,13.3-22.2,26.6-37.5,29.2h-1v2.4c-.1,0,0,0,0,0v.5c12,5,24.8,7.8,37.5,5.1,19.3-4.1,36.5-17.3,44.9-34.3.8-1.8,1.7-3.8,2.4-6,4.1-10.6,6.4-24,5.3-40.4,0,0,0-.1,0-.2,0-.1,0-.3,0-.4v-.3c-.2-3.1-.4-5.8,2.2-8.9.3-.3.5-.5.7-.8h0c0,0,0,0,0,0,.5-.6.8-1.2.9-1.7-3.8,3.9-11.3,2.1-20.2,0-4.8-1.1-9.9-2.4-15.1-2.8h-1.1c0-.1-1-.2-1-.2-65-4.5-78.2,41-76.6,65v.2c0,.1-.1.3-.2.4h.2s0,0,0,0h.2ZM874.7,351.1l1.5.3-.4.3c-.2.2-.4.3-.6.5l-.8.6c-2.2,1.8-4.3,3.5-7.1,6.1l5.7,1.4c5.9,1.4,11,2.6,15.9,4.5,11.5,3.5,23,7,34.8,1.9l.5-.2c1.1-.5,2.5-1.2,2.5-1.9,0-1.3-.8-2.9-1.9-4-2.1-2.1-4.3-4-6.4-5.9-1.1-1-2.1-1.9-3.2-2.9l-.8-.7-1.1-1h0c-5.4-4.8-10.7-9.5-16.8-13.2-5.4-3.4-11.4-5.9-18.5-6.9-10.7-1.3-20.6,0-29.7,3.5-13.9,5.1-24.9,14.7-35,25.7-2.4,2.6-4.6,5.2-6.7,7.9l-2,2.7c-.8,1.1-1.5,2.2-2.2,3.3-2.1,3.3-3.8,6.8-5.1,10.6-.5,1.4-.9,2.8-1.3,4.2-.5,2.1-.9,4.3-1.1,6.6-1,12.8-1.6,25.6-2.1,38.4-.2,4.1-.4,8.1-.5,12.1,0,.1,0,.2,0,.3v.2s0,.4,0,.4c-.2,1.7-.4,3.6.6,4.8.4.4.9.8,1.6,1,.6.2,1.3.3,2.2.3,5.4-.3,5.4-3.7,5.4-7.5v-5.8s-.1-4.6-.1-4.6h0c-.1-6.9-.2-13.6.1-20.3.5-8.6,1.1-17.1,3.2-25.4,1.4-5.3,3.4-10,6-14.1,1.6-2.6,3.5-5,5.6-7.1l1.8-1.7,2.2-1.8c.7-.6,1.5-1.2,2.3-1.7,7.6-5.1,17.2-7.9,28.4-7.7,4.8,0,9.4-.9,14.1-1.9h0c2.4-.5,4.8-1,7.3-1.3h.8c0,0,1.2.2,1.2.2ZM828.5,332.7c2.9-2,5.9-4,9.2-6.4l-1.8-.3c-1.9-.3-2.6-.5-2.8-.3-1.9,1-3.8,1.9-5.8,2.8-6.1,3-12.3,5.9-17.8,9.8-7.4,5-13.7,11.2-18.7,18.4-4.4,6.2-7.9,13.1-10.5,20.4-3.4,9.4-4.5,19.3-4.5,29.2,0,6.2.3,12.4.6,18.5h0c0,1.7.2,3.3.2,4.9,0,1.4,1.1,2.7,2.3,4l1.2,1.6,1-.4,1.1-.4v-.6c.4-1,.6-1.9.7-2.9.1-.7.2-1.3.3-2v-1.5c0,0,0-17.9,0-17.9,0-3.1.1-6.1.4-9,.6-7.1,2-13.8,4.1-20.2l.7-2,1.2-3c.5-1.3,1.1-2.6,1.7-3.9.7-1.4,1.4-2.8,2.1-4.1l1.3-2.3.7-1.2,1.1-1.8c5.3-8.1,12.2-15.4,20.8-21.8,3.4-2.6,7-5.1,10.9-7.8h0ZM629.4,211.6c-1.6-.4-2.9-.7-4-1.3l-4.7-2.6-.6-.3c-4.9-2.7-9.8-5.4-14.5-8.6-1-.7-1.5-2.4-2-4.2-.3-1-.5-1.9-.9-2.8.5,0,1.1-.1,1.6-.2,1.8-.3,3.6-.6,5.1,0,7.8,4,15.2,8.5,22.7,13.1.5.3.8.7,1.2,1.3.6,1.1,1,2.5,1,3.5-.2.8-1.8,1.5-2.9,2h0s-.8.4-.8.4h-.3c0,0-.1-.1-.1-.1h-.3c0,0-.2-.1-.2-.1h-.2ZM608.5,245l-1-.6-8.9-5.9c-3.6-2.5-7.3-5-11-7.7-.8-.5-.5-3.5.3-4.5.8-1.1,3.5-1.9,4.5-1.1,7,3.7,13.6,7.8,20,12,1.1.8,1.9,3.5,1.3,4.5-.3.7-1.3,1.1-2.6,1.7h0c-.8.4-1.7.9-2.7,1.5ZM573.6,257.8h0c-.6.8-1.3,1.8-2.2,3l4.7,3.4h.2c3.5,2.7,6.9,5.2,10.4,7l.8.4h0c2.9,1.4,6.9,3.3,8.8-1.1,0-.2,0-.4,0-.6-.1-.3-.4-.7-.7-1.2-.4-.5-.9-1-1.5-1.6l-.7-.7c-.9-.9-1.8-1.8-2.5-2.7l-.4-.5-.4-.5-5.5-2.7-3.3-1.7-5.9-3.1c-.6.9-1.1,1.6-1.8,2.6h0s0,0,0,0h0ZM636.2,306.1c-1.1-3,5.4-8.9,40.3-8.4l-40.3,8.4ZM684.3,84.6c-11.9-1.2-36.7-2.3-40.3,3.4l40.3-3.4ZM832.9,758.1c2.4,1.4,4.9,2.4,7.4,3.5h0c1.4.6,2.9,1.2,4.3,1.9-39-33.4-64.4-72.5-65-124.9,0-1.3-1-2.7-2-4.1-.5-.6-.9-1.2-1.2-1.8-.3.6-.7,1.2-1.2,1.7-.9,1.3-1.9,2.7-2.1,4.1-.4,4.5-.5,8.9-.3,13.3,0,1.7.2,3.4.3,5l.4,3.8c.6,5.1,1.5,10.1,2.8,15,2.3,9.1,5.7,17.9,9.9,26.6,11,22.2,23.8,43.3,46.5,55.9ZM725.7,724c-.6-1.2-1.5-2.4-2.8-3.6,10.7-9.1,24.9-8,33.2-1.1,7.2,6.1,12.8,14.4,18.2,22.5,1.6,2.4,3.1,4.8,4.5,7.2l2.3,4.1,4,7.4c2,3.8,4.1,7.7,6.3,11.5l.4.7h0c6.8,11.8,13.5,23.4,14.5,37.6.3,5.3,2.1,10.9,4.5,15.8,7.1,14.8,13.9,23.5,23.6,31l-.3.5h-5.9c-8.9-4.1-25.6-18.2-28.7-41.6-1.5-12.5-6.9-21.9-9.5-26v-.2c-.1-.1-.2-.2-.2-.3,0-.1-.1-.3-.2-.4,0-.2-.1-.3-.2-.4v.2c-.1,0-.1,0-.1,0-10.9,11.6-26.1,41.1,0,66.8,11.6,11.4,25.3,12.7,39.5,14,13,1.2,26.4,2.5,39,11.5-.2-1.2-.8-2.4-1.6-3.8-2.4-4.5-5.8-10.9,1.6-25.6,9.6-19.3-1.4-80-61.5-69.6-1.3-2.5-2.3-5.1-3.4-7.8-1.2-3-2.4-6.1-3.9-8.9-3.3-6.1-6.3-12.4-9.3-18.7h0l-.6-1.2c-4.1-8.5-8.2-17.1-13.1-25-13.6-21.4-38.2-26.5-57.2-14.5-6,4-10.5,8.9-13.9,14.5-3.4,5.8-5.6,12.3-7,19.2-1.3,7-.6,14.7,1.1,21.7.5,2.2,1.1,4.3,1.8,6.5,1.1,3.3,2.3,6.4,3.8,9.5,2.4,5.1,5.3,10,8.8,14.5,4,5.3,7.8,10.8,11.6,16.2h0s.2.3.2.3l.2.3.5.7,4.4,6.3c.2-3.3-.1-6.4-.6-9.5-.4-2.1-.8-4.2-1.2-6.3-4.3-19.2-6.9-38.8-5.6-58.6,0-1.2.2-2.6.6-3.9.3-.9.6-1.8,1-2.5,1.6-3.1,2.6-6.1,1.9-9-.2-.7-.4-1.4-.8-2.1ZM551.9,834.1c0-6.2,6.7-11.8,12.8-10.4,1.1.3,2.7,1.9,2.9,2.9,1.3,6.5,2.6,13,3.8,19.6h0c1,5.4,2,10.8,3.1,16.2.9,4.9,2,9.7,3.1,14.6h0l.4,1.6.3,1.2,2.3,10.9,2.3,10.7h0c1.5,7.2,3.1,14.5,4.5,21.7l.2,1.3v.3s.2.9.2.9v.7c4.4,12.2,3.8,12.6-5.1,19.4l-3.6,2.8c-1.8,1.3-3.5,2-4.9,2-.8,0-1.6-.1-2.2-.5-.4-.2-.8-.5-1.1-.8l-.7-.7c-.5-.6-.8-1.4-1.2-2.2l-.3-.9-.2-1.1c-1.3-8.2-2.6-16.4-3.8-24.6l-2-13.2-1.8-11.2c-2.1-13.8-4.3-27.6-6.6-41.5l-1.1-6.9-.6-6v-.2c-.2-2.3-.4-4.5-.7-6.6ZM757.9,683.6c3.6,5.5,7.5,11.4,16.4,13.6-3.2-11.2-6.1-21.1-12.8-28.9-3-3.7-6.1-7-9.4-10.1-5.8-5.5-12.1-9.9-18.8-13.2-13.5-6.6-28.7-8.7-46.2-5.3l-1.2.2-2.8.7-2.7.8c-2.8.9-5.4,1.9-7.9,3.1-4.5,2.2-8.5,4.9-12.1,8.2-3.1,2.9-6,6.2-8.5,10-5.3,7.8-10.4,15.8-8.8,25.9.2,1.4,1.4,2.6,2.5,3.8h0c.4.4.8.9,1.2,1.3.4-.6,1-1.2,1.5-1.8h0c.8-.9,1.7-1.8,2-2.7,3-8.9,7.1-17.6,13.4-23.9,2.2-2.2,4.7-4.1,7.4-5.6,28.3-15.8,63.9-8.3,83.9,19.8,1,1.3,1.9,2.7,2.8,4.1ZM679.4,965.6h-28.5c0,0-2-.1-2-.1h-.2c-3.4,0-6.7-.1-10-.1s-4.3.5-5.1,1.9c-2.9,4.8,2.7,14.4,8.3,14.4h38c4.6,0,8.6-.3,8.6-6.4s-2.9-9.4-9.1-9.6ZM618.3,892.3h-8.7c2.5,10.2,3.4,13.9,6.5,15.2,1.8.8,4.4.7,8.4.6h32c1.8,0,3.6,0,4.8-.8,1-.6,1.5-1.6,1.2-3.5-.5-4-4.5-10.7-7.2-11-5.8-.4-11.5-.6-17.3-.6-5.6,0-11.2,0-16.9,0h-2.9ZM678.4,892h0c-3.9,0-7.7.1-11.5.1-.5,10.4,4.6,16,13.6,16h21.8c4.1,0,8.1,0,12.1-.5,1.5-.2,2.8-1.5,4.1-2.8.5-.5,1-1,1.6-1.5-1.2-1.2-2.2-2.8-3.3-4.3-2.2-3.1-4.3-6.2-6.8-6.4-10.5-1-21.1-.8-31.5-.7ZM613.4,873.1h15.5s1.8,0,1.8,0h3.9c0,.1,1.8,0,1.8,0h1.1c1.1-.1,2.1-.3,3.2-.4,1.9-.2,3.6-1.4,5.4-2.7.8-.6,1.6-1.1,2.4-1.6l-.9-1.5-1.2-2v-.2c-.1,0-.1,0-.1,0h0c-.9-1.7-1.8-3.4-2.8-4.6-.8-1-1.6-1.7-2.4-1.8-12.3-1.1-24.3-.8-36.6-.3-1.3,0-3.7,3.5-3.5,5.1,1.9,9.1,3.2,9.9,12.6,9.9ZM702.1,965.4h52.1c0-2.3-.2-4.3-.7-6-.4-1.2-1-2.2-1.7-3.1-1.8-2.1-4.5-3.2-8-3.2s-5.4,0-8.1,0h-.1c-8.1,0-16.2,0-24.4-.3-2.9-.2-5.3.4-7.4,1.5-1.9,1-3.5,2.4-5.2,4.1-3.2,3.2-1.6,5.1,1.6,6.4l1,.4c.3,0,.7.2.9.2ZM622.4,930.3h42.2c8.6,0,11,2.7,11,12.6h-1.7c0,.1-5,.5-5,.5h-3.5c0,0-33.4,0-33.4,0-9.4,0-11.2-2.4-9.6-13.1ZM680.5,857.9h-27c-1.6,10.4,2.7,15.8,11.8,15.2l3.7-.3,4.5-.3,3.5-.2c3.6-.2,7.2-.4,10.8-.6.6,0,1.5-.3,2.2-.7.3-.2.6-.4.9-.7.3-.3.6-.7.6-1,.8-2.7-7.8-11.5-11-11.5ZM680.6,818c-.8-.5-1.6-1-2.3-1.6.3.6.3,1.4.4,2.1,0,.7.1,1.4.4,1.9,5.9,9.6,11.8,19,17.9,28.3,9.6,15,19.3,29.9,29.4,44.6,2.9,4.2,6.4,7.9,9.9,11.8h0c1.7,1.9,3.4,3.7,5.1,5.6.5-.2,1.1-.8,1.6-1.3l-9.4-13.6c-2.2-3.2-4.3-6.4-6.4-9.7l-19.8-29.8-23.5-35.5c-.6-1.1-1.9-2-3.2-2.8h-.1ZM593.8,832.2h8.8c8.8,0,17.7-.1,26.5.3,1.8,0,3.7,4,5.1,6.7l.2.5c0,.1,0,.5-.4.9-.7.8-2,2-3.1,2.7-.4.2-.9.4-1.3.5-1.8,0-3.6.1-5.4.1-8,.3-15.9.5-24-.1-.6,0-1.2-.2-1.7-.3-.4-.1-.8-.3-1.1-.5l-.4-.2c-.3-.1-.5-.3-.7-.5l-.6-.6c-.5-.6-.9-1.2-1.2-2-.3-.7-.4-1.4-.6-2.1v-.7c0,0-.2-1-.2-1v-1.8s0-1.7,0-1.7ZM687.4,942.9c5.8.1,11.5-.1,17.4-.5l4.7-.3,9-.5c-1.3-8-4-11.5-10.7-10.9-2.1,0-4.3,0-6.4,0h0c-4.3,0-8.5-.1-12.8,0-1.4.2-2.9.9-4.4,1.7l-2.3,1.2.8,1.5,1,2.3,1,2.2c.4.8.8,1.5,1.2,2.1.5.8,1,1.3,1.6,1.3ZM675.4,841.8c-1.9.6-3.8,1.2-5.7,1.6-2.9.6-5.9,1-8.8,1.1-1,0-2,0-3,0-4.4,0-8.7-.6-13-1.7-2.2-.6-3.8-3.4-5.3-6.1-.6-1-1.1-1.9-1.6-2.7v-.5c.2,0,.2-.1.2-.2h0c0-.1,0-.3,0-.3,0-.1,0-.2,0-.4,0-.2,0-.5.2-.7,2.4,0,4.8,0,7.2.1h0c4.7.1,9.4.2,14.2-.1h2.1c0-.1,1.3,0,1.3,0h.8s1.4.2,1.4.2l1.3.2.8.3c3.5,1.1,6.2,3.8,7.8,9.3ZM582.4,760c-2.4-.3-4.9-.5-7.3-.8-1.9,6.1.3,8,4.5,8s2.7,0,4,0h0c2.7,0,5.3.1,8,0h1.9c0-.1,2.1-.4,2.1-.4l2.9-.4c2.2-.3,4.5-.5,6.7-.5,4.6,0,9.2.3,13.8.6,3.1.2,6.1.4,9.2.5,1.1,0,3.2-2.1,3.2-2.9,0-1.3-1.6-3.2-2.9-3.7-.4-.2-.8-.3-1.2-.4h-.9c0-.1-.9-.2-.9-.2h-2.9c-2.4.2-4.9.5-7.3.7-4.8.5-9.6,1-14.4.9-6.2,0-12.4-.7-18.7-1.4h0ZM604.6,803.9h-7.4c0,0-6.6.1-6.6.1h-3.1c-.5.4-1,.8-1.3,1.2l-.5.7c.5.9,1.1,2.1,1.6,3.2,1,2.2,1.9,4.3,3,4.3,7.8.4,15.8.4,23.7.3h0c2.6,0,5.2,0,7.8,0l1.3-2.1c-.8-.8-1.6-1.8-2.4-2.9-.8-1.1-1.6-2.1-2.4-2.9s-1.6-1.3-2.5-1.4c-3.7-.3-7.4-.4-11.2-.4ZM572.2,744.5h49.5l.5.9.6.9c-.5.3-1,.8-1.6,1.3-1.2,1.1-2.5,2.2-3.8,2.2-13.6.3-27.5.3-41.2,0-1.2,0-2.5-1.3-3.7-2.5l-1.4-1.3c.2,0,.3-.2.5-.4.2-.3.3-.6.5-.9v-.3ZM634.8,803.7c-3.1,0-6.3.1-9.5.1-.5.7-1,1.3-1.5,1.8h-.1c.6,1,1.2,2.1,1.7,3.1,1.2,2.3,2.4,4.5,3.9,4.7,7.1.6,14.3.5,21.4.4h0c2.8,0,5.7,0,8.5,0,.5-.8.8-1.6,1.1-2.4-.8-.8-1.7-1.7-2.5-2.6l-.2-.2h0c-.8-.9-1.5-1.7-2.3-2.4-1.2-1.1-2.5-2-3.9-2.1-5.5-.5-11.1-.5-16.7-.4ZM603.7,788.6h.2c2.3,0,4.7,0,7.1,0-1.1-7.7-4.6-10.4-11.2-9.9-1.1.1-2.1.2-3.2.2h-2.5s-3.2,0-3.2,0c-2.3,0-4.6,0-6.9,0-.5,0-1,.3-1.6.6-.9.5-1.9,1.1-2.5,1.6-.3.3-.5.6-.5.8.5,2.4,1.9,6.4,3.2,6.4,7,.4,14,.4,21.1.3ZM644.4,788.6h-7.5c0,0-4,.2-4,.2h-5c-2.9,0-5.7-.1-8.5-.4-1.4-.2-2.6-1.8-3.7-3.5-.6-.9-1.2-1.7-1.9-2.4.6-.4,1.3-.9,1.9-1.4,1.1-.9,2.2-1.8,3.5-1.8,2.4-.2,4.7-.3,7.1-.3h5.2s4.3,0,4.3,0c5.9-.3,8,2.9,8.8,9.6ZM579.2,709.2h0c-2.9,0-5.8.1-8.9,0-1.2-.2-2.3-.9-3.4-1.6l-.6-.4-1.1-.6c.5-.3,1-.7,1.4-1.1,1.1-.9,2.3-1.8,3.4-1.8l9.6-.2h7.3c3.9,0,7.7,0,11.6.2.9,0,1.7.8,2.7,1.6.5.5,1.1,1,1.6,1.3-.5.3-.9.7-1.3,1-1.1.9-2.1,1.7-3.2,1.7s-3.2,0-4.8,0h0c-3.3,0-6.6-.1-9.8,0-1.5,0-3,0-4.5,0ZM571.2,730.2c-1.1.3-2.2.7-3.3.9,0,.7.1,1.3.3,1.8l.3.9c.5.5,1.3,1.1,2.1,1.1,13.9.3,28.1.3,42,.3s1.4-.7,2.1-1.4c.4-.3.7-.7,1.1-1-.5-.3-.9-.6-1.4-1-.9-.7-1.8-1.4-2.7-1.4l-6.8-.5c-3.7-.2-7.4-.4-11.1-.6-5.1-.2-10.2-.4-15.3-.5-2.3,0-4.8.7-7.2,1.4h0s-.1,0-.1,0ZM567.9,717.8h.1c0,0,1.5-1,1.5-1l.7-.3.5-.2h.6c0-.1.3-.2.3-.2,4.8-.1,9.4-.2,14.1-.2h6.2c4.1,0,8.2,0,12.3.2h.4s.2,0,.2,0c.5.1.9.3,1.4.6.7.4,1.4,1,2.1,1.6l1.5,1.2c-.1.3-.3.5-.5.8h-.1c-.2.4-.3.6-.4.8h-42l-.8-2.4c.6-.3,1.3-.7,1.9-1.1ZM737.4,923.6h0c-1-1.5-1.9-3-2.9-4.5-1.6,13.6,17.1,29.4,26.7,24.9-1.2-.7-2.3-1.4-3.5-2l-2.5-1.3h0c-3.6-1.9-7-3.7-9.8-6.3-1.1-1-2-2.1-2.9-3.2-.8-.9-1.5-1.9-2.1-2.9-1.1-1.5-2.1-3.1-3-4.7ZM577,680.4c-5.5-.2-11.1,0-17.1,1.5,4.1,2.1,11.8,3,18.6,2.6,2.8-.2,5.4-.5,7.6-1.1,1.9-.5,3.4-1.1,4.3-2l-3.8-.3h-.3s0,0,0,0h0c-3.1-.3-6.1-.5-9.2-.6ZM583.7,673.9h-24.6c4.5-3.7,17.1-4.3,24.6,0ZM595.7,693.7h-31.3v2.4c4.7.4,9.5.6,14.2.7,5.7,0,11.4-.1,17.1-.7v-2.4ZM670.7,805.2h0c-2.6-3.7-5.2-7.4-7.9-11l2.4-1.6c1.5,2.5,3.2,4.8,5,7.1,3.7,4.9,7.5,9.9,8.4,16.4-2.7-3.6-5.3-7.3-7.9-11h0ZM559.6,662.7h14.2v1.3h-14.2v-1.3ZM848.9,673.1c5.4,0,9.8-4.4,9.8-9.8s-4.4-9.8-9.8-9.8-9.8,4.4-9.8,9.8,4.4,9.8,9.8,9.8ZM562,638.9c-.4.8-.8,1.6-1.3,2.4l.4.6.3.5.3.6.4.7c1-.2,2.1-.4,3.2-.6h0c2.6-.4,5.2-.8,6.9-2.1,4.2-3.4,8.3-7.1,12.4-10.8l.5-.4.4-.4,1.1-.9.6-.6c2.2-2,4.4-4,6.6-5.9l2-1.7c2.1-1.8,4.8-4,7.5-4,4.8-.3,9.7-.1,14.5,0h0c2.9.1,5.8.2,8.8.2l66.4.2h65.3c0,0,156,0,156,0h0c7.3,0,14.7,0,22,0,4.7,0,9.4-.1,14-.2,6.7,0,8.5-2.7,7.8-8.6-.7-4.9-3.9-4.6-6.9-4.4h-1.9c-58.3,0-116.6,0-174.9,0h0c-58.3,0-116.5,0-174.8-.1h-1.6c-.6,0-1.2.2-1.7.3-1,.2-1.9.5-2.7.8-2.6,1.1-4.8,3.1-7.1,5.8l-3.1,3.7-3.7,4.2-3.7,4.1-3.7,4h0s0,0,0,0h0s0,0,0,0h0c-2.5,2.6-4.9,5.3-7.3,8-1.2,1.2-2,2.8-2.7,4.3ZM601.3,480.1h349.2c2,0,3.9,0,5.3-1,.4-.3.8-.7,1.1-1.3l.3-.6.2-.6.2-.9v-.8c.6-6.7-.2-7.8-7.7-7.8h-151.9c-63.7,0-127.4.1-191.1.3-2.9,0-5.1-.5-6.9-1.7-1.2-.8-2.3-2-3.3-3.6-6.4-11.2-16-19.5-27.8-24.9-1.5-.8-3.3-.6-5-.4h-.4c0,0-1.8.1-1.8.1l.2.8.3,1.4v.3c0,0,.3,1,.3,1l.3,1.4.4,1.2c.3.7.7,1.2,1.2,1.6,10.7,7.2,19.3,16.3,24.1,28.1,3,6.7,7,7.2,12.8,7.2ZM869.1,182.4c5.4-.7,10.2,3.2,10.9,8.5.7,5.3-3.2,10.2-8.5,10.9-5.4.7-10.2-3.2-10.9-8.5-.7-5.4,3.2-10.3,8.5-10.9ZM858.7,435.5c-.7-5.4-5.6-9.2-10.9-8.5-5.4.7-9.2,5.5-8.5,10.9.7,5.3,5.6,9.2,10.9,8.5,5.4-.7,9.2-5.5,8.5-10.9ZM803.3,262.7c-.5-4.3-4.4-7.3-8.7-6.8-4.3.5-7.3,4.4-6.8,8.7s4.4,7.3,8.7,6.8c4.2-.5,7.3-4.4,6.8-8.6ZM706.1,707.9c-14.7,9.4-32.6,2.2-36.6-6.8h0,0c.4-.4.8-.9,1.2-1.3.9-1.1,1.8-2.1,2.9-2.6,1.2-.6,2.5-.9,3.8-1.2h.2s.2,0,.2,0h.1c0,0,.2-.1.2-.1h.1c1.1-.3,2.3-.5,3.4-.9l1.2-.4,2-.5h0c1.3-.3,2.5-.6,3.8-1.1.8-.3,1.5-.6,2.2-1.1,1.5-.9,2.8-2.3,3.8-4.5l-22.6,2c0-7.5,9.2-16.9,16.9-19,2.9-.8,5.9-1.1,8.8-1.4h0c1.7-.2,3.4-.4,5-.6l2.3-.4c.7-.1,1.3-.3,2-.5l1.8-.6c2.8-1,5.5-2.7,7.9-5.4h0s1.1-2.3,1.1-2.3c-.9,2.6-.3,6.6.4,11.4,1.8,11.3,4.2,26.9-12.3,37.4ZM622.7,427.7c6.9,15.5,37.6,27.8,62.9,11.6,28.3-18,24.1-44.7,21.1-64.2-1.3-8.2-2.4-15.1-.8-19.5l-1.9,4h0c-4.1,4.6-8.8,7.5-13.6,9.3l-3,1c-1.1.3-2.3.6-3.5.9l-4,.7c-2.8.5-5.7.8-8.6,1.1h0c-5.1.6-10.3,1.1-15.2,2.4-13.4,3.5-29.1,19.7-29.1,32.6l38.9-3.5c-1.7,3.7-3.9,6.1-6.5,7.7-1.2.8-2.5,1.4-3.8,1.8-2.1.8-4.3,1.3-6.5,1.8h-.1s-3.4.9-3.4.9l-2,.6c-2,.7-3.9,1.1-5.9,1.6h-.2s-.3.1-.3.1h-.2c0,.1-.3.2-.3.2h-.3c-2.3.6-4.5,1.1-6.6,2.1-1.9.8-3.5,2.6-5,4.4h0c-.7.8-1.3,1.6-2.1,2.3h0s0,0,0,0ZM952.1,304.7c-13.5-8.6-29.9-2-33.6,6.2h0c.4.4.7.8,1.1,1.2.8,1,1.6,1.9,2.7,2.4,1.1.5,2.3.8,3.5,1.1h.2s.1,0,.1,0h.1s.2.1.2.1h.1c1,.3,2.1.5,3.1.8l1.1.3,1.8.5h0c1.2.3,2.3.6,3.4,1,.7.3,1.4.6,2,1,1.4.9,2.6,2.1,3.5,4.1l-20.8-1.9c0,6.9,8.4,15.5,15.5,17.4,2.6.7,5.4,1,8.1,1.3h0c1.5.2,3.1.3,4.6.6l2.1.4c.6.1,1.2.3,1.8.5l1.6.5c2.6,1,5.1,2.5,7.3,4.9h0l1,2.2c-.8-2.4-.3-6.1.4-10.4,1.6-10.4,3.8-24.6-11.3-34.3ZM724.6,269.2c5.2-7.7,2-25.7-12.9-32.8-16.7-8-27.9,1.8-36.2,8.9-3.4,3-6.3,5.5-8.9,6.1l2.4-.3h0c3.4.6,6,1.9,8.3,3.7l1.3,1.1c.5.4,1,.9,1.4,1.4l1.5,1.6c1,1.2,2,2.5,3,3.7h0s0,0,0,0h0c1.8,2.2,3.5,4.5,5.6,6.4,5.6,5.2,17.7,7.9,23.7,4.1l-13-17.1c2.2-.3,4,0,5.5.8.7.3,1.4.8,2,1.2,1,.7,1.9,1.6,2.7,2.5h0c0,0,1.4,1.4,1.4,1.4l.9.8c.9.7,1.7,1.5,2.4,2.3h0c0,0,.1.2.1.2h.1c0,0,.1.2.1.2h.1c.9,1,1.8,1.9,2.8,2.6,1,.7,2.2.9,3.5,1.1.6,0,1.1.2,1.7.3h0s0,0,0,0ZM777.8,299c2.3-2.1,4.9-3.9,7.5-5.7h0c1.5-1,2.9-2.1,4.4-3.2-35.3,45.6-53.9,93.2-40.9,147.7.3,1.3-.4,3.1-1.2,4.8-.3.8-.7,1.5-.9,2.2-.5-.5-1.1-1-1.7-1.5-1.4-1.1-2.8-2.2-3.4-3.7-1.6-4.5-2.8-9.1-3.8-13.7-.4-1.8-.7-3.5-1-5.3l-.5-4.1c-.6-5.4-.9-10.8-.7-16.3.3-10,1.8-20.2,4.3-30.3,6.6-26.1,15.6-51.6,38-71ZM861.7,404.6c-30.2-3.1-34.9-24.4-34.4-35.5,32.3-12,74.3,6.2,91.2,16.8-10-1.5-16.4,3.1-23.5,8.1-8.2,5.8-17.1,12.2-33.3,10.5ZM910.3,808.7c-11.1-7.1-24.6-1.7-27.7,5.1h0,0c0,0,.1,0,.1.2h0c0,.1,0,.1.1.2h0c0,0,0,.1,0,.1h.1c0,.1.1.3.1.3h.1c0,.1,0,.2,0,.2h0c.7.8,1.4,1.6,2.2,2,.9.4,1.9.7,2.9.9h.1s.1,0,.1,0h.1s.1,0,.1,0h0c.8.2,1.7.4,2.6.7l.9.3,1.5.4h0c.9.2,1.9.5,2.8.8.6.2,1.2.5,1.7.8,1.1.7,2.1,1.8,2.9,3.4l-17.1-1.6c0,5.7,6.9,12.8,12.8,14.4,2.2.6,4.4.8,6.7,1.1h0c1.3.1,2.5.3,3.8.5l1.7.3c.5.1,1,.2,1.5.4l1.3.4c2.1.8,4.2,2,6,4.1h0l.8,1.8c-.7-2-.2-5,.3-8.6,1.3-8.6,3.2-20.3-9.3-28.3ZM424,170.6h0l.3-.2c7.2-3.7,13.9-7.7,20.6-12.3.5-.3.9-.8,1.2-1.3.3-.5.6-1,.8-1.5l.3-.8.6-1.4-1.6-.6c-.9-.3-1.8-.7-2.6-.8-.6-.1-1.1-.1-1.6,0-2.4.5-4.7,1.6-6.9,2.8-.5.2-.9.5-1.4.7-3.4,1.8-6.8,3.8-10.2,5.8h0c-1.7,1-3.3,2-5,3-2.1.8-4.3,1.6-6.7,2.7,5.1,7.5,9.1,5.5,12.2,3.9ZM637.5,170.6h0l-.4-.2c-7.2-3.7-13.9-7.7-20.6-12.3-.5-.3-.9-.8-1.2-1.3-.3-.5-.6-1-.8-1.5l-.3-.8-.6-1.4,1.6-.6c.9-.3,1.8-.7,2.6-.8.6-.1,1.1-.1,1.6,0,2.4.5,4.7,1.6,6.9,2.8h0c.5.2.9.5,1.4.7,3.4,1.8,6.8,3.8,10.2,5.8h0c1.7,1,3.4,2,5,3,2.1.8,4.3,1.6,6.7,2.7-5.2,7.5-9.1,5.5-12.2,3.9ZM948.7,555.4v-34.1c0-3.2.4-5.7,1.1-7.4.7-1.8,1.5-2.9,2.3-3.4.9-.5,1.7-1.1,2.4-1.8s1.1-1.8,1.1-3-.5-2.1-1.4-2.6c-.9-.5-2.4-.7-4.6-.7h-21.9c-4.1,0-7.8.4-11.2,1.1-5.4,1.1-9.8,3.1-13.5,6.1-5.8,4.7-8.8,10.9-8.8,18.6s3.6,14.6,10.9,18.6l-7,12.9c-1.1,2-2.4,3.6-4,4.8-1.5,1.1-2.7,2-3.6,2.8-.8.7-1.2,1.7-1.2,3.1s.4,2.1,1.2,2.5c.9.5,2.4.7,4.6.7h17c3.2,0,4.9-1.1,4.9-3.3s-.4-2-1.2-3.3-1.4-2.3-1.6-3.1c-.3-.9,0-2.5.9-4.8l4.5-8.4c2,.1,3.7.2,5,.2h5c.7,0,1.3.2,1.5.4h.1c0,.1.2.5.2.5.1.3.1.7.1,1.2v2.3c0,2.8-.4,5.1-1.1,6.8-.5,1.2-1,2.2-1.6,2.8-.2.2-.4.4-.6.6l-.7.5-.5.4-.5.4-.7.7c-.7.8-1,1.7-1,2.9s.4,2.1,1.2,2.5c.9.5,2.4.7,4.7.7h18.7c1.3,0,2.3,0,3.2-.2.6-.1,1-.3,1.4-.5,1-.5,1.4-1.4,1.4-2.5s-.4-2.1-1.1-2.9l-.7-.7-.6-.5-1.1-.7-.6-.5c-.3-.3-.6-.6-.9-1.1-.3-.5-.6-1.1-.9-1.8-.4-.8-.6-1.8-.8-2.8-.2-1.2-.3-2.5-.3-4ZM931.8,512.6v27.9c0,2.3-2,3.5-6.1,3.5s-1.6,0-2.4-.2l-1-.2-1.1-.3-.9-.4c-1.9-.9-3.6-2.3-5-4.3-2.6-3.6-4-8-4-13.1s1.2-9.1,3.8-11.8c1-1.1,2.1-2,3.4-2.6l1.3-.6c.6-.2,1.3-.4,2-.6l.7-.2,1.2-.2c.6,0,1.3,0,2,0h1.8c0,0,1.1.2,1.1.2l.9.2c.8.1,1.4.4,1.6.7.3.3.5,1,.5,2.1ZM872.1,550.6c.8.2,1.4.5,1.7.9l.3.4v.3c.3.4.4,1,.5,1.7v1.3s0,.8,0,.8c-.2,5.5-.7,9.9-1.6,13.1-.5,1.7-1.3,2.9-2.6,3.6-1.1.7-3.2,1-6.1,1h-42c-1.2,0-2.3,0-3.1-.2-.7-.1-1.2-.3-1.6-.5-.9-.5-1.3-1.3-1.3-2.5s.4-2.3,1.1-3c.8-.8,1.5-1.3,2.3-1.7.9-.5,1.7-1.6,2.5-3.4.7-1.8,1.1-4.3,1.1-7.5v-33.4c0-3.2-.4-5.7-1.1-7.4-.7-1.8-1.6-2.9-2.5-3.4-.8-.5-1.6-1.1-2.3-1.8-.4-.4-.7-.9-.8-1.4l-.2-.9v-.8c0-1.2.4-2.1,1.3-2.6.9-.5,2.4-.7,4.7-.7h39.6c2.5,0,4.5.3,6,.9.7.3,1.4.7,1.9,1.2.5.5.9,1,1.1,1.6,1.4,2.8,2.4,6.3,3.3,10.4.6,3.2,0,5.1-1.6,5.6-1,.3-1.9.2-2.8-.3-.4-.2-.8-.5-1.1-.9l-.6-.6-.7-1c-1.1-1.7-2.3-3.1-3.4-4.3l-.8-.8-.6-.6c-.7-.6-1.4-1.2-2-1.7-2.3-1.5-5-2.3-8.1-2.3h-4.4c-1.6,0-3,.1-4.1.3-.9.2-1.6.5-2.1.8-.6.4-1.1,1-1.4,1.7,0,.3-.2.7-.2,1.1v.8c0,0,0,12.7,0,12.7,0,1.1.2,2.1.5,2.7.2.5.6.9,1,1.2,1.1.7,2.8,1,5.1,1h2c.7,0,1.3,0,1.9-.3.7-.2,1.2-.5,1.7-1,.9-.8,1.6-1.7,1.8-2.7l.4-1,.4-.8.6-.9c.6-.8,1.4-1.2,2.3-1.2s.5,0,.8,0l.7.2c.4.2.8.5,1,.9l.3.6.2.7c.2.7.3,1.6.3,2.7v13.1c0,3.3-1.1,5-3.3,5s-1.7-.4-2.3-1.2c-.6-.9-1.1-1.8-1.4-2.7-.3-1-.9-1.9-1.8-2.8-.5-.5-1.1-.8-1.8-1.1-.5-.2-1.1-.2-1.7-.2h-2c-1.2,0-2.1,0-3,.2-.9.2-1.6.4-2.1.8-1,.7-1.5,2-1.5,3.9v17.2c0,1.7.6,2.9,1.7,3.7.7.4,1.8.7,3.2.8h1.4c0,.1,2.3.2,2.3.2h6.3c1.4-.1,2.7-.3,3.8-.8,1.1-.4,2-1,2.7-1.9.5-.6,1-1.3,1.6-2.1l1-1.5c.9-1.5,1.9-3.4,3-5.5,1.5-3,3.1-4.3,4.9-3.9ZM732,572.4c1.1.7,2.3,1.3,3.5,1.7,1.2.4,2.5.6,3.9.6,5.6,0,9.9-2,12.7-5.9.8-1.1,1.6-2.5,2.3-4.1l.6-1.4.5-1.2c.4-1.2.8-2.5,1.2-3.8l.7-2.6.5-2.3.4-1.9c1.4-7.1,2.6-19.5,3.7-37.3,0-1.7.9-2.8,2.4-3.4,1.6-.6,3.9-.9,6.8-.9s3.6.1,4.8.4c.8.2,1.4.4,1.8.6,1.2.6,1.8,1.7,1.8,3.2v41.5c0,2.8-.4,5.1-1.1,6.8-.7,1.7-1.5,2.8-2.3,3.4-.9.5-1.7,1.1-2.4,1.9-.7.8-1,1.7-1,2.9v.7c0,0,.3.6.3.6.2.5.6.9,1.1,1.2,1,.5,2.5.7,4.6.7h18.7c2.2,0,3.8-.2,4.6-.7.9-.5,1.3-1.3,1.3-2.5s-.2-1.7-.7-2.4l-.4-.5c-.7-.8-1.4-1.5-2.2-1.9-.8-.5-1.6-1.7-2.4-3.4-.7-1.7-1-4-1-6.8v-40.9c0-1.4.3-2.5.8-3.5.6-1,1.1-1.8,1.7-2.2.7-.5,1.3-1.1,1.8-1.7.6-.7.8-1.4.8-2.2,0-1.7-1.7-2.5-5.2-2.5h-44.2c-3.4,0-5.1.8-5.1,2.5s.5,1.8,1.5,2.7c.6.5,1.3,1,1.9,1.7l1.3,1.4c1.1,1.3,1.6,3,1.6,5,0,5.7-.4,12.2-1.2,19.5-.2,2.3-.5,4.6-.9,6.8l-.3,2.1-.6,3.2c-.5,2.7-1.2,5.3-1.9,7.8-1.6,6-3.4,9-5.3,9s-1.6-.3-2.2-.9c-.5-.5-.9-1.1-1.2-1.7l-.3-.4c-.3-.8-1-1.5-1.8-2.1l-.6-.4c-.7-.4-1.6-.6-2.6-.6-1.6,0-3.1.7-4.3,2.2-1.2,1.3-1.8,3.1-1.8,5.2,0,3.3,1.1,5.6,3.4,7.1ZM664.5,556.7l-1.4,3.5c-.9,2.7-1.1,4.4-.7,5.2.4.7,1.1,1.6,1.9,2.4,1,.9,1.4,1.8,1.4,2.7,0,2-1.7,3-5.1,3h-9.6c-1.1,0-2.1,0-2.9-.2-1.9-.4-2.9-1.3-2.9-2.7s.3-1.7.9-2.3c.4-.4.7-.7,1.2-1,.4-.3.7-.5,1.1-.7.4-.2.8-.5,1.3-.8.5-.4,1-.9,1.6-1.5,1.1-1.1,1.9-2.5,2.5-4l17.8-44c.7-2.5.8-4.1.3-4.9l-.8-1.1c-.4-.5-.9-1.1-1.5-1.7l-.5-.7-.2-.3c-.4-.7-.7-1.4-.7-2.2v-.9c0,0,.3-.7.3-.7.2-.3.4-.5.6-.8.6-.5,1.4-.7,2.5-.7h12.6c2,0,3.5,1,4.4,2.9l21.5,54.2c.8,1.8,1.6,3.4,2.5,4.6,1,1.2,1.9,2,2.5,2.4.3.2.6.4.9.6l.4.4.4.4c.5.6.7,1.4.7,2.3s-.4,2.1-1.2,2.5c-.8.5-2.3.7-4.4.7h-18.6c-1.9,0-3.2-.2-4.1-.7-.8-.5-1.2-1.3-1.2-2.5s.3-1.7,1-2.3l1.3-1.1.9-.6c.7-.4,1.1-1.2,1.4-2.3.3-1.2.1-2.7-.7-4.5l-.9-2.3c-.6-1.5-1.3-2.4-2-2.6-.5-.2-1.3-.3-2.6-.4h-1.7c0,0-2.5-.2-2.5-.2h-4.7c-7,0-10.9.2-11.8.7-.6.3-1,1-1.4,2ZM677.9,546.5c5.2,0,7.9-.2,8.3-.6,0-.1.1-.3.2-.4,0-.2,0-.4,0-.7v-.4c-.1,0-.3-.6-.3-.6l-8-20.7-8,20.1c-.7,1.7-.7,2.7,0,2.9.4.1,1.4.3,3,.3,1.3,0,2.9,0,5,0ZM552,560.2l1.4-3.5c.2-.6.5-1.1.8-1.4.2-.2.4-.4.6-.6.9-.5,4.8-.7,11.8-.7s6.7,0,8.7.2c1.4.1,2.4.2,2.8.4.8.3,1.4,1.1,2,2.6l.9,2.3c.8,1.8,1.1,3.3.7,4.5-.3,1.1-.7,1.9-1.4,2.3l-.9.6c-.4.3-.8.7-1.3,1-.7.7-1,1.5-1,2.3s.4,2.1,1.2,2.5l.9.4h.3c.8.2,1.7.3,2.9.3h18.6c2.1,0,3.6-.2,4.4-.7.6-.4,1-1,1.2-1.8v-.8c0-.4,0-.8,0-1.2-.1-.4-.3-.8-.6-1.2-.5-.6-1.1-1.1-1.7-1.4-.7-.4-1.5-1.2-2.5-2.4-1-1.2-1.8-2.8-2.5-4.6l-21.5-54.2c-.5-1-1.1-1.8-1.9-2.3l-.4-.2-.4-.2c-.3,0-.6-.2-.9-.2h-.8c0,0-12.6,0-12.6,0-.4,0-.8,0-1.2,0h-.5c-.4.3-.7.4-.9.7-.6.5-.9,1.3-.9,2.3v.7c.2.4.3.7.5,1.1.2.5.6.9,1,1.4,1,1,1.8,1.9,2.2,2.7.5.7.4,2.4-.3,4.9l-17.8,44c-.4.9-.8,1.7-1.3,2.4-.4.6-.8,1.1-1.3,1.6-1,1.1-2,1.9-2.9,2.3l-.8.4-.4.3-.5.4-.7.6c-.6.7-.9,1.5-.9,2.3,0,2,1.9,3,5.8,3h9.6c3.4,0,5.1-1,5.1-3s-.5-1.9-1.4-2.7c-.9-.9-1.5-1.7-1.9-2.4-.4-.8-.2-2.5.7-5.2ZM575.1,545.9l-.4.2h-.5c0,0-1,.2-1,.2-1.4.1-3.5.2-6.4.2s-4.5,0-5.8-.1h-.6s-1.2-.2-1.2-.2h-.4c-.7-.4-.7-1.3,0-3l8-20.1,8,20.7c.2.6.3,1,.4,1.4,0,.3,0,.6-.2.7ZM507,530.7c5.4,1.3,9.4,3.6,12.2,7,2.8,3.4,4.3,7.5,4.3,12.2,0,6.9-2.7,12.5-8.2,17-5.4,4.4-13,6.6-22.7,6.6h-28.2s-1.4-.2-1.4-.2l-1-.3-.5-.2c-.9-.5-1.3-1.3-1.3-2.5s.4-2.3,1.1-3l1-.9.5-.3.8-.5c.4-.2.8-.6,1.2-1.2.2-.3.5-.7.7-1.1l.5-1.1c.3-.8.6-1.7.8-2.7.2-1.4.4-3,.4-4.8v-33.4c0-3.2-.4-5.7-1.1-7.4l-.4-.9-.4-.7c-.3-.5-.6-.9-.9-1.2-.2-.2-.5-.4-.7-.5-.8-.5-1.6-1.1-2.3-1.8-.8-.7-1.1-1.8-1.1-3s.1-1.2.4-1.6c.2-.4.5-.7,1-1,.9-.5,2.4-.7,4.7-.7h22.9c17.7,0,26.7,5.1,26.9,15.3.1,6.2-2.8,10.5-8.9,13ZM483.9,512.5v13.2c0,.8.4,1.3,1.1,1.7.8.4,1.9.6,3.4.6h.4c2.1,0,3.8-.2,5.3-.7,1.4-.5,2.6-1.1,3.4-2,1.2-1.3,1.9-3.1,1.9-5.4s-1.1-5.3-3.4-7.3c-.8-.8-1.7-1.4-2.7-1.8-.6-.3-1.4-.6-2.1-.8-.6-.2-1.3-.3-2-.4-.6,0-1.2,0-1.9,0-2.3,0-3.5,1-3.5,2.9ZM492.4,566.3c8.6,0,12.9-4.3,12.9-13s-1.6-9-4.8-12.3c-2.1-2.2-4.7-3.7-7.8-4.5-1.6-.4-3.4-.6-5.2-.6s-1.5,0-2.1.3c-.3,0-.6.2-.8.4-.5.4-.7,1.2-.7,2.3v22c.3,1.8.8,3.1,1.6,4,1.1,1,3.4,1.5,6.8,1.5ZM382.9,565c6.5,6.4,14.6,9.6,24.2,9.6s20-3.6,27.2-11c7.2-7.3,10.9-16.4,10.9-27.4s-3.1-18.4-9.4-24.9c-2.1-2.2-4.3-4.1-6.8-5.5-.7-.4-1.4-.8-2.1-1.1-4.5-2.2-9.7-3.3-15.5-3.3s-7.2.5-10.5,1.3c-2,.6-3.9,1.3-5.7,2.1-1.8.9-3.6,1.9-5.3,3.1-2,1.4-3.9,3-5.6,4.9-7.3,7.6-11,16.9-11,27.8s3.2,18.1,9.7,24.4ZM424.9,559.9c-2.6,3.7-6.6,5.6-12.1,5.6s-2.8-.2-4.1-.5c-1-.2-1.9-.6-2.8-1-.6-.3-1.2-.6-1.8-1-1.2-.8-2.4-1.7-3.6-2.9-3.6-3.6-6.3-8-8.2-13.2-.9-2.9-1.6-5.8-2.1-8.7-.4-2.5-.6-5.1-.6-7.6,0-6.1,1.4-11.1,4.2-15.1,1.4-2,3.1-3.5,5.2-4.5,2-1,4.4-1.5,7-1.5,4.5,0,8.5,1.8,12,5.5,3.6,3.6,6.3,8.1,8,13.4,1.8,5.3,2.7,10.8,2.7,16.5v2.3c0,0-.3,2.4-.3,2.4l-.2,1.6-.4,2c-.7,2.5-1.7,4.8-3,6.7ZM351.5,521.3v34.1c0,2.8.3,5.1,1,6.8.7,1.7,1.5,2.8,2.3,3.4.9.5,1.7,1.1,2.3,1.9.7.8,1.1,1.7,1.1,2.9s-.4,2.1-1.3,2.5c-.9.5-2.4.7-4.7.7h-18.7c-2.1,0-3.6-.2-4.6-.7-.9-.5-1.3-1.4-1.3-2.5v-.7c.2-.8.5-1.6,1-2.2l.7-.7c.4-.3.8-.7,1.2-.9l.6-.3c.9-.5,1.7-1.7,2.3-3.4.7-1.7,1.1-4,1.1-6.8v-41c0-1.7-.8-2.9-2.5-3.5-1.7-.7-5.1-1-10.3-1s-9.3.3-11,1c-1.6.6-2.4,1.8-2.4,3.5v41c0,1.1,0,2.2.1,3.1.2,1.4.5,2.7.9,3.7.4.9.8,1.7,1.3,2.3.4.5.7.8,1.1,1.1.9.5,1.7,1.1,2.3,1.9.7.8,1.1,1.7,1.1,2.9s-.2,1.3-.5,1.8l-.3.3c-.2.1-.3.3-.6.4-.9.5-2.4.7-4.7.7h-18.6c-.7,0-1.4,0-1.9-.1l-1.5-.2c-.5-.1-.9-.3-1.3-.4-.9-.5-1.3-1.4-1.3-2.5s.1-1.2.3-1.7c.2-.4.4-.8.8-1.2.7-.8,1.5-1.5,2.3-1.9.9-.5,1.7-1.7,2.4-3.4.4-.9.7-2,.9-3.3.2-1,.2-2.2.2-3.5v-34.1c0-3.2-.4-5.7-1.1-7.4-.7-1.8-1.6-2.9-2.4-3.4-.8-.5-1.6-1.1-2.3-1.8l-.5-.6c-.2-.3-.3-.7-.4-1.1,0-.4-.2-.8-.2-1.3,0-1.2.4-2.1,1.3-2.6.9-.5,2.4-.7,4.7-.7h63.8c0,0,.8.1.8.1h.7c0,.1.8.4.8.4l.4.2c.9.5,1.4,1.3,1.4,2.6s-.4,2.3-1.1,3c-.4.4-.9.8-1.3,1.1l-1.1.7c-.8.4-1.6,1.5-2.3,3.4-.7,1.8-1.1,4.2-1.1,7.4ZM199.5,573.6h18.6c2.3,0,3.9-.2,4.7-.7.4-.2.7-.5.9-.8.3-.4.4-1,.4-1.7,0-1.2-.4-2.2-1.3-3l-1.8-1.9-1.1-1.2c-1.1-1.3-1.8-3-2.2-5.2-.3-1.5.2-2.8,1.3-3.9l28.8-28.3v28.9c0,1.3,0,2.7-.3,4.1-.2,1.3-.5,2.4-1.1,3.3-.3.5-.6.9-1,1.3-1.1,1.1-2.2,2-3.2,2.9-.9.8-1.4,1.9-1.4,3.1s.4,2.1,1.3,2.5c.9.5,2.4.7,4.7.7h18.6c2.3,0,3.9-.2,4.7-.7.9-.5,1.3-1.3,1.3-2.5s-.3-2.1-.9-2.7c-.5-.8-1.2-1.3-1.9-1.6-.7-.3-1.5-1-2.2-2-.7-1.1-1.2-2.5-1.4-4.2-.2-1.4-.3-2.8-.3-4.1v-35.4c0-1.3.1-2.7.3-4.1.2-1.6.7-2.8,1.4-3.9.8-1.1,1.6-1.8,2.3-2.2l1-.7c.4-.3.7-.7,1.1-1,.6-.8.9-1.7.9-2.7s-.5-2.1-1.4-2.6c-.9-.5-2.4-.7-4.6-.7h-18.6c-2.3,0-3.9.2-4.8.7-.5.3-.8.7-1,1.3-.1.4-.2.8-.2,1.3,0,1.4,1,2.8,2.9,4.3,1.9,1.4,3,3.1,3.5,5.2.2.8.1,1.5-.2,2.3-.2.5-.6,1-1,1.5l-28.7,28.2v-27.9s.1-1.2.1-1.2l.2-1.7c.2-1.6.7-2.8,1.4-3.9.8-1.1,1.6-1.8,2.3-2.2l.5-.4.6-.5.9-.9c.6-.8.9-1.7.9-2.7s-.5-2.1-1.4-2.6c-.9-.5-2.4-.7-4.6-.7h-18.6c-1,0-1.9,0-2.6.1l-1.2.3-.9.3c-.8.5-1.2,1.3-1.2,2.6s.3,2.1.8,2.8c.6.7,1.3,1.2,2,1.5.8.3,1.5,1,2.2,2.1.7,1,1.2,2.4,1.4,4.1.2,1.4.3,2.8.3,4.1v37.7c0,0-.3,1.8-.3,1.8-.3,2-1,3.5-2.1,4.6l-3.2,2.9c-1,.8-1.4,1.9-1.4,3.1s.4,2.1,1.3,2.5c.7.4,1.7.6,3.2.7h1.5ZM116.6,574.6c-2.6,0-5.1-.7-7.4-2.2-2.2-1.5-3.4-3.9-3.4-7.1s.6-3.8,1.8-5.2c1.2-1.5,2.7-2.2,4.3-2.2s1.3.1,1.8.3c.4.1.7.3,1,.5l.4.3c.5.3.9.7,1.2,1.1.3.3.5.7.6,1,.4.7.9,1.4,1.5,2.1.7.6,1.4.9,2.2.9h.5c.9-.3,1.7-1.1,2.5-2.6.8-1.5,1.6-3.6,2.4-6.4.7-2.4,1.3-4.9,1.8-7.5.8-3.9,1.4-8,1.9-12.4.8-7.3,1.2-13.8,1.2-19.5s-.4-3.4-1.3-4.6l-.3-.4-1.4-1.6c-.6-.6-1.2-1.1-1.9-1.6-1-.8-1.5-1.7-1.5-2.7s.4-1.4,1.2-1.8c.9-.5,2.2-.7,3.9-.7h44.2c3.4,0,5.2.8,5.2,2.5s-.3,1.5-.8,2.2l-.5.6c-.4.4-.8.8-1.3,1.2-.6.5-1.2,1.2-1.7,2.2-.5.9-.8,2.1-.8,3.5v40.9c0,2.8.3,5.1,1,6.8.7,1.7,1.5,2.8,2.3,3.4.8.5,1.6,1.1,2.2,1.9.8.8,1.1,1.7,1.1,2.9s-.4,2.1-1.3,2.5c-.8.5-2.3.7-4.6.7h-18.7c-2.1,0-3.6-.2-4.6-.7-.9-.5-1.3-1.4-1.3-2.5s.3-2.1,1-2.9c.7-.8,1.6-1.5,2.4-1.9.9-.5,1.7-1.7,2.3-3.4.7-1.7,1.1-4,1.1-6.8v-41.5c0-1.5-.6-2.5-1.8-3.2-1.1-.7-3.3-1-6.6-1s-5.2.3-6.8.9c-1.6.5-2.4,1.7-2.4,3.4-1.1,17.8-2.3,30.2-3.7,37.3-1.6,8.1-3.6,13.9-6.2,17.5-1.7,2.3-3.8,3.9-6.4,4.9-1.9.7-4,1-6.3,1Z"/>
</svg>